<?xml version="1.0" encoding="utf-8"?>
<!-- Generator: Adobe Illustrator 23.0.6, SVG Export Plug-In . SVG Version: 6.00 Build 0)  -->
<svg version="1.1" id="Слой_1" xmlns="http://www.w3.org/2000/svg" xmlns:xlink="http://www.w3.org/1999/xlink" x="0px" y="0px"
	 viewBox="0 0 11.8 32" style="enable-background:new 0 0 11.8 32;" xml:space="preserve">
<style type="text/css">
	.st0{fill:#FEFEFE;}
	.st1{fill:#FEDC09;}
	.st2{fill:#FBC209;}
	.st3{fill:#FC9708;}
	.st4{fill:#F19108;}
	.st5{fill:#FEFEFD;}
	.st6{fill:#FCAE36;}
	.st7{fill:#F3F3F1;}
	.st8{fill:#FCC03D;}
	.st9{fill:#FBAC36;}
	.st10{fill:#F7F0DC;}
	.st11{fill:#FCB83E;}
	.st12{fill:#FCBC3B;}
	.st13{fill:#FCAB32;}
	.st14{fill:#FCBB36;}
	.st15{fill:#F6BE09;}
	.st16{fill:#FCC13D;}
</style>
<g>
	<g>
		<path class="st0" d="M6.2,0.1c5.2,0,10.4,0,15.6,0c0.2,0,0.3,0,0.3,0.3c0,10.5,0,21,0,31.6c0,0.2,0,0.3-0.3,0.3
			c-10.5,0-21,0-31.6,0c-0.2,0-0.3,0-0.3-0.3c0-10.5,0-21,0-31.6c0-0.2,0-0.3,0.3-0.3c5.2,0,10.4,0,15.6,0c0,0.1-0.1,0.2-0.2,0.3
			C3.2,2.2,1.8,4.7,1.3,7.8c-0.1,1-0.1,1.9-0.1,2.9c0,0.3,0,0.6-0.3,0.8c-0.1,0.1-0.1,0.2-0.2,0.3c0,0.1,0,0.2,0,0.3
			c0,5.1,0,10.2,0,15.3c0,0.3,0,0.6,0.4,0.8c0.2,0.1,0.2,0.5,0,0.7c-0.2,0.2-0.3,0.4-0.3,0.6c0,0.5,0,1.1,0,1.6
			c0,0.7,0.1,0.8,0.8,0.8c2.5,0,5,0,7.5,0c0.5,0,1,0,1.5,0c0.5,0,0.6-0.1,0.6-0.6c0-0.6,0-1.2,0-1.8c0-0.2-0.1-0.4-0.3-0.5
			c-0.3-0.2-0.3-0.6,0-0.8c0.2-0.1,0.3-0.3,0.3-0.5c0-0.2,0-0.5,0-0.7c0-4.9,0-9.9,0-14.8c0-0.3,0-0.7-0.4-0.9
			c-0.1-0.1-0.1-0.2-0.1-0.4c0-0.5,0-1,0-1.5c0-2.7-0.8-5.2-2.5-7.3C7.6,1.4,7,0.8,6.4,0.3C6.3,0.3,6.2,0.2,6.2,0.1z"/>
		<path d="M6.2,0.1c1.3,1,2.4,2.2,3.2,3.6c1,1.8,1.4,3.6,1.4,5.6c0,0.6,0,1.1,0,1.7c0,0.1,0,0.2,0.2,0.2c0.2,0.1,0.4,0.2,0.4,0.5
			c0,0.1,0,0.2,0,0.3c0,5.2,0,10.3,0,15.5c0,0.3,0,0.7-0.4,0.8c-0.2,0-0.1,0.2-0.1,0.4c0,0.1,0,0.2,0.1,0.2c0.3,0.1,0.4,0.3,0.4,0.6
			c0,0.7,0,1.3,0,2c0,0.4-0.2,0.6-0.6,0.6c-3.1,0-6.3,0-9.4,0c-0.4,0-0.6-0.2-0.6-0.6c0-0.7,0-1.3,0-2c0-0.3,0.1-0.5,0.4-0.6
			c0.2,0,0.1-0.2,0.1-0.3c0-0.1,0.1-0.2-0.1-0.3c-0.3-0.1-0.4-0.3-0.4-0.6c0-0.1,0-0.1,0-0.2c0-5.2,0-10.3,0-15.5
			c0-0.4,0-0.7,0.5-0.8c0.1,0,0.1-0.2,0.1-0.2c0-0.9,0-1.9,0.1-2.8c0.3-2.9,1.5-5.3,3.6-7.3c0.3-0.3,0.6-0.6,1-0.8
			C5.9,0.1,6,0.1,6.2,0.1z"/>
		<path class="st1" d="M2.8,12.3c2.1,0,4.3,0,6.4,0c0.1,0.1,0.1,0.3,0.1,0.4c0,4.7,0,9.4,0,14.1c0,0.1,0,0.3-0.1,0.4
			c-2.1,0-4.3,0-6.4,0c-0.1-0.1-0.1-0.3-0.1-0.4c0-4.7,0-9.4,0-14.1C2.7,12.6,2.7,12.4,2.8,12.3z"/>
		<path class="st2" d="M8.6,11.2c-1.8,0-3.5,0-5.3,0c-0.1-0.1-0.1-0.2-0.1-0.4c0-0.8,0-1.6,0-2.4c0-1.6,0.3-3.2,0.9-4.7
			c0.1-0.3,0.2-0.7,0.4-1c0.1-0.1,0.1-0.2,0.2-0.2c0-0.1,0-0.1,0-0.2c0.3-0.3,0.7-0.7,1-1c0.2-0.1,0.3-0.1,0.4,0
			C6.6,1.8,7,2.2,7.3,2.6c0.6,1.2,1,2.5,1.2,3.8c0,0.1,0,0.2,0,0.3c0,0,0,0.1,0,0.1c0,0.1,0,0.3,0,0.4c0,0.1,0,0.1,0,0.2
			c0,0.1,0,0.3,0,0.4c0,0.1,0,0.2,0,0.3c0,0.1,0,0.3,0,0.4c0,0.8,0,1.5,0,2.3C8.7,11,8.7,11.1,8.6,11.2z"/>
		<path class="st0" d="M2.8,12.3c0,5,0,9.9,0,14.9c-0.3,0-0.6,0-0.9,0c-0.1,0-0.2,0-0.2-0.2c0-0.1,0-0.1,0-0.2c0-4.8,0-9.5,0-14.3
			c0-0.3,0-0.4,0.3-0.3C2.3,12.3,2.5,12.3,2.8,12.3z"/>
		<path class="st3" d="M9.2,12.3c0.3,0,0.5,0,0.8,0c0.2,0,0.2,0.1,0.2,0.2c0,1.1,0,2.2,0,3.3c0,3.7,0,7.3,0,11c0,0.3,0,0.4-0.3,0.3
			c-0.2,0-0.5,0-0.7,0c-0.1-0.1,0-0.2,0-0.3c0-4.8,0-9.5,0-14.3C9.2,12.5,9.2,12.4,9.2,12.3z"/>
		<path class="st0" d="M4.6,2.8C4.1,4,3.7,5.3,3.5,6.6C3.4,7.5,3.3,8.4,3.3,9.3c0,0.6,0,1.3,0,1.9c-0.3,0-0.6,0-0.9,0
			c-0.1,0-0.2,0-0.2-0.2c0-1.7-0.1-3.4,0.5-5C3.1,4.8,3.7,3.7,4.6,2.8C4.6,2.7,4.6,2.7,4.6,2.8z"/>
		<path class="st3" d="M8.4,6.4C8.3,5.6,8.1,4.8,7.8,3.9C7.6,3.5,7.4,3.1,7.3,2.6c0.6,0.7,1.1,1.5,1.5,2.3c0.7,1.5,1,3,0.9,4.6
			c0,0.5,0,1,0,1.5c0,0.2-0.1,0.3-0.2,0.2c-0.3,0-0.5,0-0.8,0c-0.1-0.5,0-1,0-1.5c0-0.4,0-0.8,0-1.2c0-0.1,0-0.3,0-0.4
			c0-0.1,0-0.2,0-0.3c-0.1-0.1,0-0.3-0.1-0.4c0-0.1,0-0.1,0-0.2C8.5,7.1,8.6,7,8.5,6.9c0,0,0-0.1,0-0.1C8.4,6.6,8.5,6.5,8.4,6.4z"/>
		<path class="st2" d="M9.2,31c-2.1,0-4.3,0-6.4,0c-0.1-0.3-0.1-0.7,0-1c2.1,0,4.3,0,6.4,0C9.3,30.3,9.3,30.6,9.2,31z"/>
		<path class="st4" d="M3.3,28.3c1.2,0,2.4,0,3.5,0c0.9,0,1.8,0,2.7,0c0.2,0,0.2,0.1,0.2,0.3c0,0.2,0,0.3-0.2,0.3
			c-2.4,0-4.8,0-7.2,0c0.1-0.2,0.2-0.1,0.3-0.1c0.3,0,0.5,0,0.8,0c1.7,0,3.4,0,5.1,0c0.1,0,0.1,0,0.1-0.1c0-0.1-0.1-0.1-0.1-0.1
			c-1.5,0-3,0-4.5,0c-0.2,0-0.3,0-0.5,0C3.4,28.4,3.3,28.4,3.3,28.3z"/>
		<path class="st5" d="M2.8,29.9c0,0.3,0,0.7,0,1c-0.3,0-0.6,0-0.9,0c-0.1,0-0.2,0-0.2-0.2c0,0,0,0,0,0C1.7,29.9,1.7,29.9,2.8,29.9z
			"/>
		<path class="st3" d="M9.2,29.9c0.3,0,0.6,0,0.8,0c0.1,0,0.2,0,0.2,0.2c0,0,0,0,0,0c0,0.9,0,0.9-1,0.8C9.2,30.6,9.2,30.3,9.2,29.9z
			"/>
		<path class="st6" d="M9.2,12.3c0,5,0,9.9,0,14.9c0,0,0,0-0.1,0C9.2,22.3,9.2,17.3,9.2,12.3C9.2,12.3,9.2,12.3,9.2,12.3z"/>
		<path class="st7" d="M3.3,28.8c-0.3,0.1-0.7,0-1,0c-0.2-0.4-0.1-0.5,0.3-0.5c0.2,0,0.5,0,0.7,0c0,0,0,0,0,0
			C3.5,28.5,3.5,28.7,3.3,28.8z"/>
		<path class="st8" d="M8.7,8.5c0,0.9,0,1.8,0,2.7c0,0,0,0-0.1,0C8.6,10.3,8.6,9.4,8.7,8.5C8.6,8.5,8.6,8.5,8.7,8.5z"/>
		<path class="st9" d="M9.2,29.9c0,0.3,0,0.7,0,1c0,0,0,0-0.1,0C9.2,30.6,9.2,30.3,9.2,29.9C9.2,29.9,9.2,29.9,9.2,29.9z"/>
		<path class="st10" d="M4.6,2.8C4.6,2.8,4.6,2.8,4.6,2.8c0-0.2,0-0.2,0.1-0.2C4.7,2.7,4.7,2.8,4.6,2.8z"/>
		<path class="st11" d="M8.5,6.9c0.1,0.1,0,0.2,0.1,0.4C8.4,7.1,8.5,7,8.5,6.9z"/>
		<path class="st12" d="M8.5,7.4c0.1,0.1,0,0.2,0.1,0.4C8.5,7.7,8.6,7.6,8.5,7.4z"/>
		<path class="st13" d="M8.7,8.5C8.6,8.5,8.6,8.5,8.7,8.5C8.6,8.4,8.6,8.2,8.6,8.1C8.7,8.2,8.6,8.4,8.7,8.5z"/>
		<path class="st14" d="M8.4,6.4c0.1,0.1,0,0.2,0.1,0.3C8.4,6.7,8.4,6.5,8.4,6.4z"/>
		<path class="st15" d="M3.3,28.8c0-0.1,0-0.3,0-0.4c1.8,0,3.5,0,5.3,0c0,0.1,0,0.3,0,0.4C6.8,28.8,5.1,28.8,3.3,28.8z"/>
		<path class="st16" d="M8.6,28.8c0-0.1,0-0.3,0-0.4C8.7,28.5,8.7,28.7,8.6,28.8z"/>
	</g>
</g>
</svg>
