<?xml version="1.0" encoding="utf-8"?>
<!-- Generator: Adobe Illustrator 23.0.6, SVG Export Plug-In . SVG Version: 6.00 Build 0)  -->
<svg version="1.1" id="Слой_1" xmlns="http://www.w3.org/2000/svg" xmlns:xlink="http://www.w3.org/1999/xlink" x="0px" y="0px"
	 viewBox="0 0 692 745.2" style="enable-background:new 0 0 692 745.2;" xml:space="preserve">
<style type="text/css">
	.st0{fill:#FEFEFE;}
	.st1{fill:#F48D8D;}
	.st2{fill:#F49496;}
	.st3{fill:#EC5361;}
	.st4{fill:#EE5961;}
	.st5{fill:#B4B8BD;}
	.st6{fill:#B2B2B8;}
	.st7{fill:#E7DCDE;}
	.st8{fill:#C6C7CB;}
	.st9{fill:#EEE9E8;}
	.st10{fill:#E9213D;}
	.st11{fill:#CCC0C3;}
	.st12{fill:#C51E46;}
	.st13{fill:#DF0F33;}
	.st14{fill:#A2A3AC;}
	.st15{fill:#A6A7AB;}
	.st16{fill:#A89093;}
	.st17{fill:#B7B5B8;}
	.st18{fill:#E35767;}
	.st19{fill:#E4A2AA;}
	.st20{fill:#EBE5E3;}
	.st21{fill:#C64950;}
	.st22{fill:#D5D7D7;}
	.st23{fill:#ECCACB;}
	.st24{fill:#E15A6D;}
	.st25{fill:#E8C5CC;}
	.st26{fill:#D44053;}
	.st27{fill:#F0DEDE;}
	.st28{fill:#DE3B47;}
	.st29{fill:#E03B49;}
	.st30{fill:#F57D83;}
	.st31{fill:#ED7277;}
	.st32{fill:#EC5F6B;}
	.st33{fill:#E17584;}
	.st34{fill:#EFC8CA;}
	.st35{fill:#CD0739;}
	.st36{fill:#B5062C;}
	.st37{fill:#E2415B;}
	.st38{fill:#ECC5CC;}
	.st39{fill:#F17076;}
	.st40{fill:#F5B6B6;}
	.st41{fill:#CC3547;}
	.st42{fill:#C40639;}
	.st43{fill:#6A626C;}
	.st44{fill:#5F5F69;}
	.st45{fill:#BE0334;}
	.st46{fill:#EF737A;}
	.st47{fill:#EB7176;}
	.st48{fill:#61666E;}
	.st49{fill:#BA3C54;}
	.st50{fill:#AA5872;}
	.st51{fill:#BA0834;}
	.st52{fill:#DE2144;}
	.st53{fill:#9C0A2F;}
	.st54{fill:#AF0732;}
	.st55{fill:#ED6675;}
	.st56{fill:#D53850;}
	.st57{fill:#F0B4C6;}
	.st58{fill:#CD2A48;}
	.st59{fill:#E5A5B5;}
	.st60{fill:#C41431;}
	.st61{fill:#E7DFE1;}
	.st62{fill:#7E192F;}
	.st63{fill:#DE6268;}
	.st64{fill:#D6475B;}
	.st65{fill:#E06569;}
	.st66{fill:#F15F69;}
	.st67{fill:#9C0A2B;}
	.st68{fill:#B30533;}
	.st69{fill:#D6274A;}
	.st70{fill:#9C062B;}
	.st71{fill:#F0D0D2;}
	.st72{fill:#DE687C;}
	.st73{fill:#E23150;}
	.st74{fill:#856270;}
	.st75{fill:#E29298;}
	.st76{fill:#9A8393;}
	.st77{fill:#9A032A;}
	.st78{fill:#D0103E;}
	.st79{fill:#DC3454;}
	.st80{fill:#ECD8DC;}
	.st81{fill:#EDC3C6;}
	.st82{fill:#E64C73;}
	.st83{fill:#E2B3BB;}
	.st84{fill:#C92244;}
	.st85{fill:#E9455C;}
	.st86{fill:#F0BBC2;}
	.st87{fill:#CC0433;}
	.st88{fill:#1B2738;}
	.st89{fill:#595B6A;}
	.st90{fill:#374052;}
	.st91{fill:#983955;}
	.st92{fill:#DCD2DF;}
	.st93{fill:#B00B33;}
	.st94{fill:#656C78;}
	.st95{fill:#484F5D;}
	.st96{fill:#BB1A3F;}
	.st97{fill:#212C38;}
	.st98{fill:#E9AAB3;}
	.st99{fill:#CC1148;}
	.st100{fill:#EC596D;}
	.st101{fill:#AC0E26;}
	.st102{fill:#AA0728;}
	.st103{fill:#EF92A6;}
	.st104{fill:#9A7577;}
	.st105{fill:#D00B3B;}
	.st106{fill:#DF3D5A;}
	.st107{fill:#E67580;}
	.st108{fill:#F4C2C0;}
	.st109{fill:#E04856;}
	.st110{fill:#93072B;}
	.st111{fill:#7D0529;}
	.st112{fill:#D78DA0;}
	.st113{fill:#4E1026;}
	.st114{fill:#DE435C;}
	.st115{fill:#D6123B;}
	.st116{fill:#F27075;}
	.st117{fill:#F8C8CD;}
	.st118{fill:#FBD3D1;}
	.st119{fill:#DF2B52;}
	.st120{fill:#E22D4F;}
	.st121{fill:#9C052A;}
	.st122{fill:#A1173A;}
	.st123{fill:#8C0828;}
	.st124{fill:#111B2B;}
	.st125{fill:#F5D9DD;}
	.st126{fill:#DCC9CF;}
	.st127{fill:#BEA9AF;}
	.st128{fill:#55222C;}
	.st129{fill:#8D1B37;}
	.st130{fill:#BD1038;}
	.st131{fill:#600722;}
</style>
<g>
	<g>
		<path class="st0" d="M1.6,380.9c0-119.4,0.3-238.8-0.4-358.3C1.2,8.3,4.5,5.1,18.8,5.1c212.1,0.5,424.2,0.5,636.3,0
			c14.3,0,17.6,3.2,17.6,17.6c-0.5,238.8-0.5,477.7,0,716.5c0,14.3-3.2,17.6-17.6,17.6c-212.1-0.5-424.2-0.5-636.3,0
			c-14.3,0-17.7-3.2-17.6-17.6C1.9,619.8,1.6,500.4,1.6,380.9z"/>
		<path class="st1" d="M366.2,722c-9.4,12-18.6,4.1-27.6-0.5c-36.1-18.5-72.2-37.2-108.2-55.9c-1.6-11.9,7.1-10.4,14.2-10.5
			c6.1-0.1,12.4,5.8,18.3-0.5c6.5-13.1-13.1-13.9-11.6-24.5c21-9.6,37-23.6,41.9-47.4c14.9-6.1,24-19.1,35.2-29.6
			c4.1-1.3,8-1.1,11.8,0.9c7,8.5,10.3,18.9,14.2,28.9c0.6,5.6-1.5,10.6-3.6,15.6c-5.1,10.3-2.4,20.5,0.6,30.7
			c2.3,11.3,1.7,22.7,1.9,34.1c0.2,13.6-1.2,27.2,1.4,40.6C357,710.8,361.6,716.4,366.2,722z"/>
		<path class="st2" d="M201.9,651c-4.5,1.3-8.5,0.8-11.4-3.4c-51.3-18.4-96.3-49.4-145.1-72.8c-9.6-14.6-20.3-29.2-1.3-44.5
			c14.6,0.2,31.1-1.4,21.5,23.9c29.2-18.4,58.8-33.3,88.9-47.1c11.6,7.6,27.6-4.3,38.1,8.6c3,17.3-10.9,34.3-0.8,51.7
			c-7.3,6.3-20.5,5.6-22.2,18.6c-8.3,11.2-9.6,20.2,7.7,22.3c6.2,0.8,12.8-0.8,18.7,2.5c2.1,1.7,3.7,3.8,4.8,6.2
			c2.6,8.9,3.9,18,4.5,27.2C205,646.8,203.9,649.1,201.9,651z"/>
		<path class="st3" d="M631.2,554.5c-33.3,19.8-66.6,39.6-99.9,59.4c-7.5,2.9-13.9,2.6-17.7-5.8c-0.9-9.9-1.9-19.9-2.7-29.9
			c19.5-5.2,5.3-15.1,3.3-23.3c-1.1-4.8-1.3-10,1.2-13.9c7.4-11.2-7.7-31,9-35.4c16-4.2,34.6-8.3,51.7,0.5
			c19.8,12.5,45.5,15.4,59.5,37.1C636.2,547.7,635.1,551.7,631.2,554.5z"/>
		<path class="st4" d="M344.9,625.2c-7.3-9.7-7-19.7-0.9-29.9c13-7.4,20.7,0.3,29.3,9.1c10.6,10.7,16.2,26.1,31,32.8
			c2.5,0.4,4.9,0.9,7.3,1.4c13.9,2.8,27.2,1.6,39.5-6.1c6.6-2.5,13.2-5.2,19.3-9c11.2-1.6,13.8,7.4,17.8,14.6
			c0.2,1.2,0.3,2.4,0.4,3.6c-38.4,26.9-77.8,52.3-118.8,75.2c-12.6-2.2-14.9-11.8-16-22.3c0.1-3.8-4.1-1.1-0.3-1.4
			c0.3,0,0.4,0.9,0.4,2.7c-0.2,5.2,2.3,11-2.9,15.3c-9.8-14.7-3.8-31.1-5-46.7c7.9-11.9-2.5-27,6.9-38.7
			C350.3,624.5,347.6,624.7,344.9,625.2z"/>
		<path class="st5" d="M150.2,131C204,95.5,258,60,311.6,24.2c7.1-4.7,13-6.5,20.8-2.2c21.5,11.8,43.3,23.3,65,34.9
			c-1.5,9.3-2.5,18.8-14,21.6c-14.2,0.5-25.2-7.8-36.6-14.3c-13.2-7.5-26.3-10.9-40.3-2.6c-43,24.9-86.1,49.7-124.5,81.6
			c-9.4,0.4-17.1,8.8-27.3,6C149.7,143.9,147.4,138.1,150.2,131z"/>
		<path class="st6" d="M591.9,154.8c55,21.6,55.7,22.4,57.1,78.4c0.7,28.3,0.6,56.7,0.9,85.1c2.7,14.3-7,11.8-15.2,11.3
			c-9.9-5.8-10.1-15.9-10-25.2c0.3-22.1-5-43.7-5.3-65.5c-0.3-21.7-8.1-36.2-27.8-45.3c-8.6-3.9-16.5-9.6-22.2-17.7
			C564.8,156,581.4,158.7,591.9,154.8z"/>
		<path class="st7" d="M46.5,532.6c-17.3,14.1-1.7,26.7,1.8,39.9c-2.4,5.6-5.8,9-12.4,6.4c-5.8-16.1-9.6-32.8-1.4-48.6
			c9.3-17.9-11.4-26.5-10.6-42.9c1.6-30.6,1.7-61.2,6.1-91.6c-10.4-24.4-3.4-50.1-5.6-75.1c0-17-0.1-34.1-0.1-51.1
			c-0.5-8.1,1.2-13.9,11.3-11.8c11.4,11.5,8.3,26.4,9,40.3c1.7,33.9-3,68.1,2.8,101.9c3.2,15.1,2.8,30.3,2.3,45.6
			c0.4,18-2.2,36.2,3.7,53.9C55,511.2,56.9,523.2,46.5,532.6z"/>
		<path class="st8" d="M150.2,131c2,5.3,4,10.6,6,15.9c-5.8,18.8-25.4,22.3-37.7,33.9c-24,15.4-48.2,30.6-72.7,45.4
			c-2.2,1.5-4.5,2.9-6.7,4.3c-5.7,2.5-11,10.2-17.7,1.6c-3.2-7.4-0.8-14,2.9-20.4C64.7,182.6,106.6,155.5,150.2,131z"/>
		<path class="st9" d="M35.8,578.8c4.1-2.1,8.3-4.2,12.4-6.4c51.1,18.2,96.8,46.5,142.3,75.2c-9.3,6.8-17.7,2.6-26.4-1.9
			c-20.2-10.4-40.4-21.1-61.1-30.5c-16.6-7.5-31.4-21.9-52.6-16.6C49.5,598.9,19.2,601.1,35.8,578.8z"/>
		<path class="st10" d="M460.8,79.8c2.2-21.2,16.9-36.7,25.1-55.1c4-8.9,10.5-9,18.2-3.9c10.1,6.6,20.5,12.7,30.8,19
			c-18.9,14.3-22.7,39.8-40.8,54.6C480.2,96.1,467.7,94.4,460.8,79.8z"/>
		<path class="st11" d="M631.2,554.5c0.4-2.9,0.7-5.8,1.1-8.7c3.9-32.7-4.4-65.2-2.4-97.9c2.3-24.7-5.2-50,5.7-74
			c18.3-3,12.3,11.5,13.4,19.7c2.4,17.6-4,36.2,5.8,53.1c1.9,21.8,2.7,43.8,6.2,65.3C665,536.9,654.8,549.9,631.2,554.5z"/>
		<path class="st12" d="M460.8,79.8c11.2,3.9,22.4,7.8,33.7,11.7c9.8,0,21.9-4.4,23.4,12c0,3.9-0.1,7.7-0.1,11.6
			c4.8,7.1,5.1,13.4-3.1,18.3c-28.4-3.5-58.7-1.4-79.1-27.8c1.9-12.1,8.5-20.3,20.1-24.4C457.3,80.6,459.1,80.2,460.8,79.8z"/>
		<path class="st13" d="M517.8,103.5c-4.7-10.1-18.2-2.8-23.4-12c10.8-19.4,11.4-46.8,40.5-51.8c13.1,3.5,20.8,9.1,11.3,23.8
			C537.3,77.3,537.5,97.4,517.8,103.5z"/>
		<path class="st14" d="M511.4,130.7c7.5-3,5.2-10,6.3-15.7c24.7,13.2,49.4,26.5,74.2,39.7c-7.6,5.3-15.2,10.7-22.7,16
			C535.1,170.8,512.4,155,511.4,130.7z"/>
		<path class="st15" d="M455.6,81.1c-6.1,7.6-12.2,15.1-18.3,22.7c-3.4,3.1-7.5,3.3-11.8,2.5c-14.8-8.7-33.6-12.2-40.2-31.5
			c5.5-5,1.3-16.5,12.1-18C416.8,64.9,436.2,73,455.6,81.1z"/>
		<path class="st16" d="M638.3,372.8c-0.2,26.8-0.5,53.6-0.7,80.3c-17.3-6.1-11.8-21.3-13.4-33.7c-0.1-5-0.1-10-0.1-15
			c-0.6-21.7-0.5-43.4,1-65c1-5.2,3-9.8,7.4-13c7-0.2,14.2,0.1,17.3-8.2c7.2,11.5,4.9,24.2,4.9,36.7
			C640.2,352.5,643.3,366.4,638.3,372.8z"/>
		<path class="st17" d="M638.3,372.8c-1.5-12.4-1.9-23.8,16.4-17.8c0,30.6,0.1,61.2,0.1,91.8c-14.8-7.1-9.9-20.8-11.3-32.6
			C641.9,400.3,648.5,385.4,638.3,372.8z"/>
		<path class="st18" d="M516.8,600.1c0.8,8.8,6,13,14.5,13.8c-12.1,12.5-27.4,20.1-42.6,27.8c0,0-1.5-1.9-1.5-1.9
			c-5.5-10.3-11.7-20.4-12.1-32.7C486.3,589,503.4,605.9,516.8,600.1z"/>
		<path class="st19" d="M201.9,651l-0.1-1.9c4.9-8.7,12.3-13.6,22.3-14.6c4.8,17.9,7.8-9.9,12.2-0.5c11.3,6.2,26.2,7.9,29.1,24.1
			c1.9,6.8,5.3,14.1-7.7,8.7c-8.6-3.6-17.7-14.1-27.4-1.4C222.3,658.1,208.6,661.4,201.9,651z"/>
		<path class="st20" d="M24.3,320.6c11.5,24.3,3.8,50,5.6,75.1C9.8,372,17.9,346.2,24.3,320.6z"/>
		<path class="st20" d="M24.1,211.7c0.3,8,0.6,16,0.9,24.1c10.8,5.2,12.2,12.6,5.3,22.1c-2,3.9-4,7.8-6,11.7
			C5.7,250.3,7.9,231,24.1,211.7z"/>
		<path class="st21" d="M351,711.2c0.5-6.1,0.9-12.2,1.5-19.5c6.4,9.3,11.9,17.2,17.4,25.2c-1.2,1.7-2.4,3.4-3.7,5.1
			C359.2,721.1,350.9,722.1,351,711.2z"/>
		<path class="st22" d="M656.4,177.4c5.7,15.2,5,30.4,0,45.6C656.4,207.8,656.4,192.6,656.4,177.4z"/>
		<path class="st23" d="M339.2,555.6c-3.7,0.3-7.4,0.5-11.1,0.8c-20.2-2.5-34.9-17.9-53.9-23.2c-6.2-2.9-12.4-5.9-18.4-9.2
			c-18.4-13.8-44.4-15.3-58.6-36c-7.4-30,0.5-61-6.3-91c-1.7-9.8-2.6-19.7-1.8-29.6c0.9-10.4,2.6-20.3,13.3-25.4
			c3.6-0.5,6.4,0.7,8.6,3.6c11,29.2,1.3,60.1,7.3,89.7c-1.5,27,11.4,44.1,35.7,54.8c12.1,5.3,24.5,10.9,35.3,18.5
			c30.7,21.6,60,24.8,88.8-2.9c10-5,18.9-12.8,31-12.5c6,0.7,11.1,2.7,13.3,8.9c0.6,11-8.5,13-15.5,17c-2.3,1.3-4.7,2.5-7.1,3.6
			C378.2,531.1,363.2,551.7,339.2,555.6z"/>
		<path class="st24" d="M275.9,528.7c20.2,3.9,37,14.3,52.2,27.7c-4.6,17.7-14.2,29.3-34.2,28.4c-34.3,14.8-52.4,9.1-60.8-19.2
			c0.9-2.7,2.8-4.7,5.5-5.9c13,3.1,26.9,7.7,23.4-15.1C260.2,534,265.7,529.2,275.9,528.7z"/>
		<path class="st25" d="M235.7,561.9c1.3,19.1,15.6,21.6,30.1,22.9c9.3,0.9,18.7,0,28.1,0c10.4,14.5-6.4,23.7-7.9,36.5
			c-2.6,21.9-24.6-3.9-33.6,9.2c-5.5,1.4-9.2-1.4-12.5-5.3c-3-5-5.1-10.5-9.1-14.9c-3.9-4.6-7.2-9.4-9.3-15.2
			c-1.7-10.7-1.2-21.6-2.9-32.4C224,556.6,229.7,556.2,235.7,561.9z"/>
		<path class="st26" d="M339.2,555.6c18.1-15,37.2-28.3,58.3-38.8c1.8,2.1,2.8,4.5,2.9,7.2c8.8,35.7-17.7,48.4-41.1,63.1
			c-2.8,0.2-5.3-0.5-7.4-2.2C341.4,577.9,337.3,568.1,339.2,555.6z"/>
		<path class="st27" d="M241.6,624.1c3.6,2.1,7.1,4.2,10.7,6.4c3.3,9.8,42.1,2.8,13.1,27.8c-8.2-9.3-24-9-29-22.5
			C232.7,629.4,233.6,625.2,241.6,624.1z"/>
		<path class="st28" d="M344.9,625.2c9.4-9.2,9.4-9.2,21.1,9.4c-30,8.2-5.9,25-4.2,40.1c-6.8-4.3-11.3-7.2-15.9-10.1
			C345.6,651.4,345.3,638.3,344.9,625.2z"/>
		<path class="st29" d="M351.9,585c2,0.1,4,0.2,6,0.3c24.1,11.6,41.1,28.9,45,56.5c-21,0.1-20.5-22.8-33.5-32
			c-8.2-5.8-13.7-14.9-25.4-14.5C346.7,591.9,349.3,588.4,351.9,585z"/>
		<path class="st30" d="M196.6,395.2c11,32,2.5,65.2,5.6,97.6c6.8,12.9-0.9,18.5-11.4,22.8c-10.9-5.6-24.9,8-34.4-5.7
			c-3.5-10.2,9.8-11.1,10.3-18.9c-37.7-2.9-75.1-5.3-112.4,0.7c-2,3.1-4.2,6.1-7.6,7.8c-7.7-17.3-4.2-35.3-3.2-53.2
			c0.9-2.7,2-5.6,4.5-6.8c7.6-3.7,14.5-3.6,18.7,5.3c0.7-3.3-1.4-6-1.9-9c-1.3-7.6-0.9-14.9,3-21.8c9.1-10.1,20.4-9.3,32.1-6.6
			c7.5,2.8,11.8,8.4,13.7,16.3c1.6-6.7-4.3-15.2,4.9-19.7c10.8-2.5,20,0.7,28,7.9c1.7,15.8-1.2,31.6,0.8,42.6
			c-9.3-22.3,9-43.5,15.6-67.2C168,369.3,177,371.5,196.6,395.2z"/>
		<path class="st31" d="M179.5,493.1c-7.7,5.6-15.4,11.2-23.2,16.8c-31,17.4-62,34.8-93,52.2c-5,2.8-8.8,1.9-11.2-3.6
			c-6-13.7,7.8-11.6,14-17.3c-6.9-3-13.3-5.9-19.6-8.7c0.1-11,0.2-22.1,0.2-33.1c0.5-4.3,1-8.6,1.5-12.8
			C92.2,483.4,136.3,479.7,179.5,493.1z"/>
		<path class="st32" d="M190.8,515.6c3.3-7.8,12.4-12.8,11.4-22.8c20.9,5.6,41.3,12.3,57.4,28c3.6,24.7-0.9,36-16.5,41
			c-2.5,0-5,0-7.4,0.1c-6,0-12.7-1.8-16.5,5.2c-0.9,11.7-5.9,17.3-18.1,12c-4.1-3.2-7.7-6.8-9.5-11.9
			C163.2,550.4,189.6,532.8,190.8,515.6z"/>
		<path class="st33" d="M191.5,567.2c4.9,0.3,9,1.9,10.1,7.4c-1.4,14.1,21.5,6.3,19.2,21.3c-14.2,5.3,6.7,13.3-1.4,19.1
			c-6.5,5-13.6,7.8-22,6.9c-0.6-3.1-1.2-6.2-1.9-9.3c-6-12.7-23.1-15.3-27.5-29.5C156.4,548.9,184.2,573.2,191.5,567.2z"/>
		<path class="st34" d="M168,583.1c8.5,10.5,34.4,4.7,27.5,29.5c-4.7,0.9-9.6,1.1-13.9,2.8c-14,5.5-23.6-4.4-28.4-12.7
			C146.1,590.6,162.3,589.3,168,583.1z"/>
		<path class="st9" d="M197.4,621.8c5.5-6.9,12.6-10,21.3-9.5c3.2-1.6,6.1-1.1,8.6,1.5c4.3,7.9,4.4,15.2-2.8,21.6
			c-5.3,8.2-12.7,13.1-22.7,13.7C197.2,640.6,195.2,631.6,197.4,621.8z"/>
		<path class="st35" d="M632.2,418.4c3.4,11.3-2.6,24.1,5.4,34.7c1.1,24.2,2.2,48.3,3.5,72.4c0.5,8.4,3,17.4-8.8,20.2
			c-15.5-17.7-40.3-20.1-57.5-34.8c-6.7-7.6-16.7-8.2-25.3-11.5c-6.7-2.6-11.7-6.3-12.4-13.7c-0.8-7.6,3.3-13,9.9-15.4
			c14.6-5.3,28-16.7,45.4-9.7c3.4,1.4-1.1,0.2,2.7,0.7c-0.5-1.5-2.2-1-3.3-2c-1.4-2.4-1.6-4.7-1-7.2c5.8-9.9,4.7-22.3,11.8-31.7
			C611.9,411.8,621.7,409.9,632.2,418.4z"/>
		<path class="st36" d="M591.9,458.2c7.4,0,14.7,0,22.1,0c-20,6.7-41.6,4.1-59.9,16.8c-4.2,2.9-11.9,1.4-12.4,9
			c-0.4,7,5.8,9.3,10.9,11.6c8.3,3.9,19.3,3.8,22.2,15.4c-14.6-1.3-29.2-3-43.9-3.6c-4-0.2-12.2,4-9.2,7.2
			c14.8,16.1-5.7,27.4-4.1,41.3c-9.2,3.5-15.2-2.9-21.9-7.2c-2-1.8-3.6-4.1-4.7-6.6c-1.7-5.3-1.1-10.6,0.6-15.8
			c8.5-14.9-11.1-35.6,10-48.5c3.3-2-4.3-3.7-6.2-6.5c-6.8-10.3-2.1-15.5,7.6-19.1C532.9,450.5,563.1,443.7,591.9,458.2z"/>
		<path class="st37" d="M494.9,544c10.2-1.2,14.5,9,22.7,11.7c9.8,3.7,11.8,13.1,17.4,23.6c-9.4,0-16.7,0-24.1,0
			c-12.9,8.2-26.6,14.9-41.2,19.3c-10.6,3.2-20.8,5.6-20.3-11.3c1-10.3,7.4-19.9,16-20.3C482.1,566.3,484.3,550.6,494.9,544z"/>
		<path class="st38" d="M465.8,595.5c15.7-3.4,25.9-22.5,45.1-16.1c12,4.1,9.9,12.2,5.9,20.8c-10.6,21.2-28.4-5-40.5,6.2
			c-1.8,2-3.9,2.6-6.4,1.6C465.8,604.7,462.8,601,465.8,595.5z"/>
		<path class="st39" d="M465.8,595.5c2.2,3.7,4.4,7.4,6.7,11.1c0.3,6.1,4,12.3-0.8,18.1c-0.7,11.6-9,11.5-17.4,11.3
			c-19-23.9-32.1-2.6-46.8,6.1c-1.5-0.1-3-0.2-4.5-0.3c-12.5-20.9-28.7-38.7-45-56.5c18.7-17.8,41.4-33.2,39.3-63.8
			c11.7-7.4,17.5,1.5,23.3,8.8c7.2,8.9,12.7,19,20.5,27.5c11.3,8.6,9.8,22.1,13.1,33.8C453.4,605.8,463.5,589.2,465.8,595.5z"/>
		<path class="st40" d="M407.5,642.1c0-17.7,17.7-25,27-29.4c15.8-7.5,8.9,18.3,19.8,23.3C439.8,646.7,424.7,652.8,407.5,642.1z"/>
		<path class="st41" d="M471.6,624.6c-2-6.1-9.1-12.5,0.8-18.1c1.3,0.2,2.6,0.1,3.8-0.2c9.8,9.1,7.9,22.1,10.9,33.4
			C478.2,638.6,478.8,627.6,471.6,624.6z"/>
		<path class="st42" d="M385.4,74.8c13.7,9,27.4,18,41,27c3.1,27.7-18.2,6-24.5,15.5c2.1,4.1,10.3,8.9,8.4,18.2
			c-5,7.5-16.5,6.6-20,15.9c-4.8,7.6-6.9,16.8-14.3,22.7c-2.1,1.6-4.5,2.8-6.9,3.8c-34.5,3.1-34.5,3.1-43-21.2
			c-11.4,0.1-16.9,15.5-29.8,11.6c-17.2-12.8-18.7-28-4.4-43.1c8.5-9,11.8-18.8,12.6-30.3c5.1-13-2.2-25.3-2.2-38
			c11.3-12.9,23.9-11.7,37.7-4.2C354.9,60.6,368.6,71,385.4,74.8z"/>
		<path class="st43" d="M302.4,56.9c8.2,9.8,18.4,19.1,8.6,33.5c-7.3,31.2-28.5,49.7-57.2,50.2c-25.7-4.5-37.3,20.7-57.7,27.4
			c-2.9,0.3-5.6-0.3-8.2-1.6c-7.5-6.9-16.4-13.3-9.3-25.5c1.4-15.2,15.8-18.3,25.2-24.1C236.6,96.6,267.2,72.9,302.4,56.9z"/>
		<path class="st44" d="M178.7,140.8c-1.1,10.8,12.1,14.5,12.2,24.7c-1.7,5.2-5.6,8.8-9.4,12.4c-17.9,8.4-31.5,26-53.7,25.6
			c-4.3-1.3-7.9-3.5-11.2-6.5c-5.5-6.6-6-13.3-0.7-20.2c10.7-13.6,27.3-19.2,40.1-29.8C163.8,145.6,169.4,136.2,178.7,140.8z"/>
		<path class="st45" d="M408.6,137c-4.2-12.4-13.4-19.1-30.5-18.9c13.2-13.9,23.9-12.7,34.7-9.2c7.3,2.4,13,2.8,13.6-7.2
			c3.6,0.7,7.3,1.3,10.9,2c20.7,20,50.6,14.8,74.1,27c9.1,28,37.6,28,57.7,40.1c56.5,16.5,64.3,60,61.7,110
			c-0.8,15.1,1.1,30.4,1.8,45.7c-0.5,3.9-1.1,7.8-1.6,11.7c-5.2,10-6.1,21.5-10.4,31.9c-6.2,14.7-2.3,27.4,11.2,36.7
			c0.2,3.9,0.3,7.8,0.5,11.6c-10-0.9-19.7,0-28.5,5.5c-13.7-14-4.3-33.1-10.7-48.6c-3.4-12.5-1.7-25.9-6.3-38.2
			c-0.9-2.5-1.6-5.1-2.3-7.7c-18.4-11.6-31.9-31.8-56.9-31.9c-3.7,0-6.7-3.5-9.9-5c-10-4.7,17.3-21.7-8.8-22.7
			c-12.3-0.5-3.5-21.1-12.4-29.4c-1.8-2-3.2-4.1-4.3-6.5c-1.7-5.4-0.4-10.3,2-15.1c1.1-2.3,2.4-4.5,3.7-6.6
			c8.9-13,1.6-19.3-9.9-23.8c-3.4-1.7-6.5-3.9-9.4-6.3c-13.9-11-30.2-17.9-45.6-26.3C423.6,151,412.3,149,408.6,137z"/>
		<path class="st46" d="M116.4,406.5c-2.7,6.5,9.2,14.4,0.4,18.6c-5.5,2.6-11.3-4.2-12.1-11.7c-5.1-13.9-17.6,1.5-24.3-6.2
			c-2.9-7.4,0.4-15.1-0.9-22.6c-1.2-7.5-5-9.6-11.7-5.5c-21.1,4.2,0.9,18.3-5.8,25.7c-9.1,11.7-14.1,0.6-20.4-3.7
			c-10.9-37.2-3.1-75.5-6.7-113.1c-1-10.1,3.3-21.1-4.7-30.1c-1.8-7.4-3.5-14.7-5.3-22.1c3.6-4,7.1-7.9,10.7-11.9
			c11.9,10.3,26.1,15.3,41.5,17.5c2.5,0.9,4.8,2.3,6.8,4c18.6,19.6,39.6,36.3,62.6,50.2c14.6,8.8,13.4,14.7-1.1,19.9
			c-11.7,4.2-22.6,9.2-31.5,18c-4.4,7.7-20.5,2.1-18.9,16.6c4.4,13.7,6.6,28.3,19.3,37.6C118.4,393.6,122.1,399.5,116.4,406.5z"/>
		<path class="st47" d="M41.6,401c7.8-4.3,9.8,8.7,17.1,5.7c6.3,1,9.2,5.5,11.3,10.9c0.1,9.5,0.8,19.1,0.2,28.5
			c-0.8,12-6.1,19.2-19.2,15.7c-4-11.6,15.6-7.5,10-16.9c-4.7-7.9-11.7-0.8-17.5,1.4C42.9,431.2,42.2,416.1,41.6,401z"/>
		<path class="st48" d="M82.5,247.7c-2.6-0.8-5.3-1.6-7.9-2.5C63,238.5,49.1,235,42.4,221.5c24.3-15.4,46.8-33.6,73.6-44.8
			c0.7,6.2-0.9,13.2,5.4,17.7c9.2,23.3-18.7,26.2-23,42C94,241.5,90.5,247.8,82.5,247.7z"/>
		<path class="st49" d="M42.4,221.5c15.7,1.2,23.1,13.6,32.2,23.7c-18.2,2.3-33.4-0.7-39-21.4C37.9,223.1,40.1,222.3,42.4,221.5z"/>
		<path class="st35" d="M631.8,406.7c-34,4.1-22-23.5-19.7-35.4c2.1-10.6,6.1-25.9,18.9-33.1C631.3,361,631.5,383.9,631.8,406.7z"/>
		<path class="st50" d="M224.5,635.4c0-7.1,0-14.2,0-21.3c1.8-6.1,8.4-3.6,12-6.5c10.3,2.8,5.8,10.2,5.2,16.5
			c-4.9,2.5-4.2,7.5-5.2,11.7C232.5,635.5,228,653.2,224.5,635.4z"/>
		<path class="st51" d="M212.4,441.6c-6.3-32.4-3.4-65.3-4.7-97.9c3.9-10.8,14.6-14.3,22.5-20.8c4.8-2.9,9.8-5.4,15.3-6.8
			c2.9-0.7,5.9-0.9,8.9-0.7c18.9,3.3,17.9,18.2,18.5,32.1c-0.1,6-0.9,11.9-2.9,17.6c-7.7,16.2-20.7,30.4-19.8,50
			c-2,18.1,10.4,33.7,9,51.7c-15.1,18.3-25.6,18.5-35.2,0.2C219.5,458.7,219,448.7,212.4,441.6z"/>
		<path class="st52" d="M454,591.4c-5.6-9.6-11.3-19.3-16.9-28.9c-9.9-16.8-14.5-37.6-34.4-47.1c5.8-3.9,11.7-7.7,17.5-11.6
			c4.4-20.2,31.3-21.2,35.4-41.6c3.3-6.1,7.1-11.6,15.4-9.6c3.3,2.8,4.3,6.5,4.2,10.7c-4.9,14.2,2.7,27.1,4.3,40.6
			c-12.9,25.7-12.3,27.3,15.3,40.4c0,0,0-0.2,0-0.2c-5.3,11.4-4.9,26.6-24.1,27.4C461.3,571.8,454.2,580.2,454,591.4z"/>
		<path class="st53" d="M212.4,441.6c8.5,6.1,15.1,12.9,19.2,23.4c6.4,16.1,15.4,15.6,22.7-0.4c7.3-3.3,11.5,3.3,17.2,5.3
			c13.1,8.3,27,15.3,38.8,25.6c12.3,11.8,25.3,17.3,42.7,9.8c9.1-3.9,20.2-4.1,28.3,5c-29.6,33.2-61,28.1-94.3,5.6
			c-14.8-10-30.7-19.1-47.3-25.5C215.9,481.2,208.3,465.1,212.4,441.6z"/>
		<path class="st54" d="M381.2,510.3c-13.5,0.5-25.9-0.4-39.7,7.4c-14.3,8.1-25.9-8.2-36.1-18.6c2.5-3.8,6.2-5.6,10.3-6.6
			c18.8-1,34.8-10.7,52.1-16.3c6.8-5.1,9.5-15.4,20-15.8c9.7,2.3,19.1-7.7,28.9-0.8c3.9,6,4.2,12.8,3.9,19.6
			c-0.2,2.8-0.7,5.5-1.6,8.2c-2.3,5.6-6.7,8.8-12.5,10.2C398.2,501.8,389.7,506.1,381.2,510.3z"/>
		<path class="st55" d="M196.6,395.2c-11.5,1.5-14.6-10.5-25.5-15.7c0.1,32.8-33.2,55.3-21.6,90.8c-5.8-19.3-9.5-38.1-4.6-57.5
			c-2.4-8.7-4-17.6-4.4-26.7c-0.1-2.6,0.2-5.2,0.6-7.8c1.1-10.9,6.9-17.1,18-18c5.5-0.7,11.1-0.9,16.7-0.8c7.4,0.1,14.4,1.5,20,6.8
			C196,375.9,196.3,385.6,196.6,395.2z"/>
		<path class="st56" d="M157.2,365.6c-10.4-1.6-7.7,9-12.2,13c-18.5-7.1-12.8-21.1-9.7-34.3c13.5-18.4,32.4-14.2,50.8-12.1
			c6.6,1.9,12.1,5.3,15.3,11.6c-1.9,7.5-3.9,15-5.8,22.4c-7.5-0.2-15-0.3-22.5-0.5C168.2,348.2,162.5,366.9,157.2,365.6z"/>
		<path class="st57" d="M406.7,497.6c2.9-3.4,5.8-6.7,8.7-10.1c31.1-18.3,25.4-49.1,26.4-77.7c2.4-7,2.1-17.1,14.4-13.7
			c12.8,22,3.6,45.4,4.4,68.1c0.7,27.6-30.3,23-40.3,39.7C417,498.9,411.8,498.3,406.7,497.6z"/>
		<path class="st58" d="M243.1,561.9c9.1-12.2,16.3-25.2,16.5-41c6.9-0.6,11.2,4.4,16.3,7.8c-17.3,7.6,0.7,27.3-13.4,37.5
			C253.1,573,254.7,575.1,243.1,561.9z"/>
		<path class="st59" d="M201.5,343.9c-4.5,0.1-8.1-1.5-10.3-5.6c-2.9-2.4-6.8-3.9-7.6-8.2c5.7-13.2,18-5.4,26.8-8.6
			c4.7-1.4,9.4-3.4,14.5-2.6c3.6,1.6,6.1,4.2,6.9,8.1c-4.7,10.4-16.8,10.2-24.2,16.6C205.6,343.7,203.6,343.8,201.5,343.9z"/>
		<path class="st60" d="M402.7,515.4c26.7,4.5,29.3,26.7,34.4,47c-17.6-9.5-16.1-37.6-40-41.1c0.3-1.5,0.4-3,0.3-4.5
			C399.1,516.1,400.9,515.6,402.7,515.4z"/>
		<path class="st61" d="M220.6,595.2c-3.6-9.3-26.9-0.6-19-20.6c11.4,10.5,11-6.5,17.5-7.5c21.8,4.8,0.3,18.9,5.8,27.2
			C224,596.7,222.5,597,220.6,595.2z"/>
		<path class="st62" d="M220.6,595.2c1.6,0.3,3.1,0,4.4-1c3.8,4.5,7.6,8.9,11.4,13.4c-2,5.9-7.7,4.9-12,6.5
			c-1.9-0.6-3.8-1.2-5.7-1.8C220.2,606.7,196.8,598.4,220.6,595.2z"/>
		<path class="st56" d="M144.8,384c2.7,9.6,8.7,19.2,0,28.7c-9.5-2.1-19-4.2-28.5-6.3c-1.9-5.7-3.8-11.4-5.7-17
			c-11.3-11.5,2.8-36.6-22-40.8c-4.9-20.5,14.8-10.2,20.9-16.8c1.5,0.3,2.9,0.6,4.4,0.9c5.7,2.6,9.7,6.9,12.2,12.6
			c4.7,16.7,3.8,33.4,0.6,49.6C130.2,387.8,134.5,381.2,144.8,384z"/>
		<path class="st63" d="M179.5,493.1c-43.7-4.4-87.4-7.7-131.3-6.5c0.2-4,1.1-7.6,6.1-7.5c36.7,0.7,73.4,1.1,110,2.6
			C170.4,481.9,185.9,474.4,179.5,493.1z"/>
		<path class="st64" d="M70,417.6c-5.5-1.8-9.2-5.5-11.3-10.9c2.6-11.3-18.7-27.1,6.3-34.3c15.1,6.6,10.1,23.1,16.7,33.9
			c6.8,5,25.2-27.3,23,7.1C93,413.8,80.7,408.7,70,417.6z"/>
		<path class="st65" d="M174.2,471.4c-9.4-15.8-5.3-28.7-4.6-41.1C172.7,442.2,180.8,453.4,174.2,471.4z"/>
		<path class="st66" d="M472,463.2c-0.2-3.6-0.3-7.2-0.5-10.7c0.7-1,1.5-2.1,2.2-3.1c22.5-5.9,18.2-22.2,14.7-38.3
			c6.9-33.5,34.3-24.7,56.2-27.3c3,0.7,5.7,2.1,8.2,3.9c12.6,15.8,1.5,36.3,10.6,52.8c7,6.7,16.8,4.5,24.8,7.9
			c2.4,1.2,4.1,3.1,5.2,5.6c-0.5,1.4-1,2.8-1.5,4.2c-32.5,0.4-64.9,0.9-97.4,1.3C487.6,464.6,481,471.6,472,463.2z"/>
		<path class="st66" d="M598.6,372.1c9.7,16.4,1.8,34.6,5.1,51.7c-3.7,10,6.7,24.8-10.4,30.2c-0.8-0.9-1.7-1.8-2.6-2.7
			c-1.7-2-3-4.3-3.8-6.8c-0.2-20.2,5.8-40.8-3.6-60.5c0-2.7,0.6-5.3,1.7-7.7C588.7,372.2,592.5,368.3,598.6,372.1z"/>
		<path class="st67" d="M472,463.2c7.5-1.2,15-2.4,22.5-3.6c0.7,8.6,7.7,9.5,13.8,12c5.5,2.3,10.1,7.2,8,13.4
			c-3.4,9.9-10.8-0.3-11.7,0.4c-9.2,7.2-7.4,18.4-3.9,26.6c4,9.4,5,14-6.5,15.3c-13.6-1.7-17.8-10.6-17.4-22.9
			C469.7,491.3,457.7,478.7,472,463.2z"/>
		<path class="st37" d="M476.7,504.4c5.8,7.6,11.6,15.3,17.4,22.9c0.2,5.7,0.5,11.3,0.8,16.9c-8.3-2.8-17.4,13-26.2-3.3
			C460,524.7,461.1,513.8,476.7,504.4z"/>
		<path class="st68" d="M299.7,166c8.2-3.7,12.6-11.2,18.3-17.6c8.4-9.4,16-4.3,20.1,4.5c7.4,15.6,8.6,17,30.8,19
			c3.4,4,3.1,8.4,2,13.2c-8,35.4-3.6,42.4,35.1,55.8c4.7-0.4,11.1-1.8,13.5,1.3c13.6,17.6,35.2,21.2,52.9,31.5
			c3.1,7.3,0.2,13.8-2.7,20.4c-12.8,23-28,11-43,3c-18.8-13.4-42.4-17.4-61.2-30.4c-10.7-7.4-15-1.7-20.4,5.5
			c-13.7-0.8-23.7-7.1-29.2-19.9c7.1-18.7,18.4-38-7.7-51.8C303.6,189.4,291.6,180.2,299.7,166z"/>
		<path class="st69" d="M402.8,246.2c-20.5,12.4-16.8-18.8-34.6-18.3c-27.9,0.9-8.8-19.1-7.9-29.7c0.8-9,5.6-17.7,8.6-26.5
			c1.6,0,3.1-0.2,4.7-0.3c8-0.2,14.6,3.6,20.9,7.9c9.8,7.2,23.2,10.2,28.2,23.3c11.8,12,18.3,23.7-5.2,28.4
			C407.9,232.9,408.1,241.6,402.8,246.2z"/>
		<path class="st70" d="M299.7,166c-0.1,12.5,14.6,19.9,11.7,33.4c-4.6,7.7-11.1,13.6-17.7,19.4c-10.4-0.2-11.7-9.8-16.4-15.9
			c-9.7-17-22.7-32.1-27.9-51.5c-0.8-6.1-0.4-11.8,4.9-16c12.9,2.1,19.3-2.2,28.2-13.9c7.9-10.4,23.4-16.3,28.6-31.1
			c0.2,13.1,3.4,27.5-9.9,36.3C281.6,139.6,286.9,152.4,299.7,166z"/>
		<path class="st71" d="M408.6,137c8.8,4.2,17.6,8.4,26.3,12.6c5.8,11.7,7.9,23.5,1.1,35.6c-13.7,4-25.6-0.6-36.7-8.2
			c-7-8.5-19.5-14.1-15-28.6C389.1,137.4,396.2,131.6,408.6,137z"/>
		<path class="st72" d="M384.3,148.4c0.1,12.2,15.6,12.8,17.6,23.6c-4.1,3.5,0,14.4-10.7,11.9c-5.9-4.1-11.8-8.3-17.7-12.4
			C377.2,163.8,380.8,156.1,384.3,148.4z"/>
		<path class="st73" d="M254.9,153.9c9.2,15.5,18.3,31,27.5,46.6c-10.3,26.3-27.4,35.3-57.3,29.9c-14.3-6.5-21.4-20-31-31.2
			c-6.8-7.8-13.8-15.5-13.3-26.9c1.3-5.2,6-5.5,10-6.8c1.8,0.5,3.6,0.5,5.5,0.1c2.1-1.8,4.6-2.3,7.3-1.7
			c19.1,14.9,33.7,5.3,47.5-8.7C252.4,154.8,253.7,154.4,254.9,153.9z"/>
		<path class="st74" d="M202,166.1c-1.9-0.1-3.8-0.3-5.7-0.4c11.8-18.2,31.5-26.3,48.7-37.4c4.8-3.1,7.9,2.4,9.2,7.2
			c0.2,6.2,0.5,12.3,0.7,18.5c-1.2,0.4-2.3,1-3.3,1.7C237.1,169,220.2,170.6,202,166.1z"/>
		<path class="st75" d="M180.8,172.3c5.3,7.4,10.6,14.7,15.8,22.1c4.4,11,11.3,23-9.2,24.6c-17.1-15.7-23.6-0.2-31.6,10.9
			c-2.3,3.4-5.1,5.9-9.2,6.9c-5.5,0-10.2-2.2-14.5-5.2c-9.2-9.5-8.6-20.4-4.2-31.8C148.2,195.7,161.5,178.2,180.8,172.3z"/>
		<path class="st76" d="M127.9,199.8c7.2,8.2,0.5,19,5.1,27.7c-10.2,16.5-22.6,23.4-39.9,9.2c-1.2-21.2,28.4-21.8,28.3-42.2
			C123.6,196.2,125.7,198,127.9,199.8z"/>
		<path class="st77" d="M465.8,291.9c1.9-5.7,3.8-11.4,5.7-17.2c-3.8-6.3-0.1-11.6,2.3-17c1.8-3.1,3.9-6,6.1-8.8
			c4.4-5.4,7.1-12.6,15.1-14.1c4.5,1,12.9,2.1,12.9,2.9c-0.6,17.7-0.6,25.4,24.8,27.4c17.3,1.4-5.5,14-13.8,24.6
			c31.9-12.3,42.2,24.1,68.1,25.2c1.7,0.1,3.1,8,4.6,12.3c-6.7,4.9-14,2.5-21.2,1.8c-17.6-1.9-34.2,6.8-51.8,4.9
			c-5.7-0.2-11.3-1.2-16.4-3.9c-1.6-1-3.6-2.3-3.7-4C497.7,304.8,491.7,288.9,465.8,291.9z"/>
		<path class="st78" d="M477.5,257.7c-2,5.7-4,11.4-6,17c-17.4-6.8-42.7,2.4-50.1-25.5c-0.7-2.5-12.1-2.1-18.5-3.1
			c3.3-7.6-12.7-28.3,14.1-20.6c3,0.9,10.6-3.5,11.1-6.4c1.9-10.3-8.6-2.4-11.5-6.6c-0.5-0.7-0.7-2.1-0.3-2.7c1.1-1.5,2.5-2.7,3.9-4
			c5.2-8.1,9.6-16.7,17-23.2c-7.1-10.7-3.1-22.1-2.2-33.2c16.1,9.2,34.5,14.5,47.6,28.6c-8.7,8.8-24.1,8.1-29.9,21
			c-7.4,14.2,5.8,15.1,12.9,18.8c9.7,5.1,21.2,7.1,28.4,16.5c0,0,1,0.3,1,0.3c-3.9,5.7-7.9,11.4-11.8,17.1
			c-10.4-4-18.7-11.5-27.7-15.4C460.2,244.7,473,247.2,477.5,257.7z"/>
		<path class="st79" d="M494,234.5c-14-5.1-27.9-10.4-42-15.2c-21.3-7.3-17.9-15.6-1.4-24.9c20,0.8,36.4,9,49.7,23.7
			C498.2,223.6,496.1,229.1,494,234.5z"/>
		<path class="st80" d="M574.9,321.1c5.6,2,11.1,4,16.7,6c0.2,1.8-0.1,3.5-0.9,5.1c0.5,15.7,1.1,31.4-3.4,46.8
			c-0.1,1.7,0,3.4,0.3,5.2c-20,9.9-27.3-2-30.6-18.7c-2.4-12.2,1.4-23.9,6.5-35C566.1,325.9,570.5,323.5,574.9,321.1z"/>
		<path class="st81" d="M500.3,218.1c-18.9-3-34.1-13.9-49.7-23.7c2.9-20.8,20.7-12.1,32-16.2c1.7,1.9,3.3,3.8,5,5.7
			c4,11.2,23.1,16.5,12.9,33.2L500.3,218.1z"/>
		<path class="st82" d="M500.5,217.2c1.2-9.7-1.4-15.3-12.6-17.4c-21.1-3.9-0.2-10.5-0.3-15.9C514.4,186.2,517.4,197.8,500.5,217.2z
			"/>
		<path class="st83" d="M587.3,379c-3.6-2.4-7.2-4.7-10.8-7.1c13.9-10,3.7-28.5,14.2-39.7c12.5,11.3,5.1,26.6,7.9,39.9
			C594.9,374.4,591.1,376.7,587.3,379z"/>
		<path class="st84" d="M93.1,236.7c15,4.1,27.4-2.8,39.9-9.2c5.2,0.3,9.9,1.5,12.6,6.6c25.9,21.8,47.4,46.5,51.5,82
			c-7.7,6.2-18.3,5.2-26.4,10.5c-19.2,6.2-37.9,17.5-58.9,6c0,0-2.2-0.8-2.2-0.8c8.5-18.1,26.2-21.3,44-26.2
			c-26.7-7-39.4-33.1-63.9-41.2c-7.8-2.6-7.5-10-7.3-16.7C86,244,89.6,240.3,93.1,236.7z"/>
		<path class="st85" d="M88.7,348.7c15.4-9.2,22.8-2.5,24,13.1c0.7,9.1-1.2,18.5-2,27.7C87.2,384.5,95.8,362.3,88.7,348.7z"/>
		<path class="st86" d="M81.7,406.2c-22.4-3-5.4-25.4-16.7-33.9c7.7-7.4,15-15.3,20.7,2C89.4,385.9,88.1,396.3,81.7,406.2z"/>
		<path class="st87" d="M265.7,350c-2.8-11.4,6.9-29.8-16.6-29.3c-1.8-1.2-2.7-2.7-2.6-4.4c0.1-1.8,0.4-2.7,0.8-2.7
			c1.8-2.3,3.9-4.2,6.3-5.8c24.5-19.5,47.5-42.8,83.6-30.9c10.8,12.8,9.3,24-5.9,31.1c-10.1,4.7-15.6,13-22.1,20.9
			c-4.5,5.1-9,10.1-13.3,15.3C287.3,353.6,277.8,358.6,265.7,350z"/>
		<path class="st88" d="M265.7,350c11.4,1,21.2-2.2,28.3-11.7c9.2-6.2,18.8-8.6,29-2.4c13.7,32.1,10.4,52.5-11.4,71.5
			c-26.5-1.4-33.9-24.3-46.4-41.6C265.5,360.5,265.6,355.3,265.7,350z"/>
		<path class="st89" d="M265.5,474.6c-3.7-3.3-7.5-6.6-11.2-10c-3.7-17.5-15.9-33.1-12.1-52.4c21.4-8.7,41.7,3.4,62.7,2.9
			c4.6,0.9,7.7,3.5,9.2,7.9C314.4,455.8,285.5,461,265.5,474.6z"/>
		<path class="st90" d="M305.4,419.2c-22,5.9-42.3-3.7-63.2-7c1.1-18.7,9.6-33.8,23.1-46.4c15,12,28.8,25.2,39.9,41.1
			C308.6,410.9,309,415,305.4,419.2z"/>
		<path class="st91" d="M249,316c-0.3,1.6-0.3,3.1,0,4.7c-2,0.3-4,0.5-5.9,0.8c-5.7-1.4-11.3,1-16.9,0.5c-4.2,1.6-8.4,3.1-12.5,4.7
			c-9.2,2-12.5-3.6-14.2-11.2c0.2-7.9,4.6-12.7,11.6-15.5c9.3-1.7,18.4,0.3,27.6,1.6C244.4,304.7,251.8,306.7,249,316z"/>
		<path class="st92" d="M226.2,322c5.6-1.6,10.9-13.2,16.9-0.5c-2.1,5.3-6.9,5-11.3,5.6C230,325.3,228.1,323.7,226.2,322z"/>
		<path class="st93" d="M460.5,464.2c-11.9-21.8-2.1-45.9-6.9-68.5c-12-16.2-4.1-35.7-8.9-53c8.3-8.2-5.6-15.8-0.6-23.9
			c5.5-3.6,11.5-3.6,17.6-2.8c11.8,3.2,25.4,1,35,11.2c9.6,26.4,11.4,51.9-9.9,73.9c-12.3,12.7-3.9,29.5-9.7,43.3
			c-1.4,2.9-3.2,5.7-5.2,8.3c0,0-0.5-0.2-0.5-0.2C466.2,454.9,462.2,458.4,460.5,464.2z"/>
		<path class="st94" d="M265.5,474.6c10.3-21.2,41.7-23.2,45.6-50.2c6.8-1.4,9.1,3.3,11.3,8.1c2.7,22.1,8.4,44.6-5.9,65.2
			c-3.7,0.5-7.4,1-11.1,1.4C292.1,490.9,278.8,482.7,265.5,474.6z"/>
		<path class="st95" d="M316.5,497.6c0.1-22.7,0.3-45.4,0.4-68.1c2.3-1.8,4.8-2.4,7.6-2c21.8,13.1,44.9,25.1,49.4,54
			C354.7,486.6,338.3,501.7,316.5,497.6z"/>
		<path class="st96" d="M448.2,413.2c0,7.5-0.9,15.1,0.3,22.3c4.5,27.5-6,44.9-33.1,51.9c-0.2-2.4-0.3-4.8-0.5-7.2
			c12.2-23.5-4.2-46.4-1.6-69.7c0.2-5.9,1.1-11.6,3.2-17.1c6.2-10.9,11.7-23,28.1-15.8C453.3,388.7,440.8,402,448.2,413.2z"/>
		<path class="st97" d="M374,481.6c-14.3-20.3-32.5-36.5-52.2-51.2c4.5-8.6,13.1-12.8,21.2-11.6c20.5,3,40.8-3.3,61.1,0.2
			c2.5,1.3,4.5,3.1,6.1,5.3c0.2,16.3-10.4,27.2-19.4,38.9C379.4,464.1,381.8,477.6,374,481.6z"/>
		<path class="st98" d="M408.9,426.2c-2-0.8-4-1.6-6.1-2.4c-3.9-3.2-9-5.7-6.7-12.2c7.4-5.3,14.8-13.1,21.7,0.6
			c5.6,15.4,0,34.2,13.9,47.8c0.5,0.5-11,13.2-16.9,20.3c-0.5-7.2-1.1-14.4-1.6-21.6C403.6,449,410.6,437,408.9,426.2z"/>
		<path class="st99" d="M408.9,426.2c10.3,9.6,3.8,21.5,4.4,32.5c-7.6,1.3-12,17.8-22.5,4.6C389.9,447.5,400.6,437.4,408.9,426.2z"
			/>
		<path class="st100" d="M144.8,384c-6.1,4.3-12.3,8.6-22.5,15.8c0-20.4,0-37.9,0-55.4c5.4-5.6,11-5.5,16.7-0.4
			c1.3,11.7-3.8,24.4,6,34.6C145,380.4,144.9,382.2,144.8,384z"/>
		<path class="st101" d="M157.2,365.6c3.9-19.1,18-14.2,30.5-15.6c2,14.4-11.4,9.5-14.5,15.9C167.9,365.8,162.5,365.7,157.2,365.6z"
			/>
		<path class="st102" d="M139,344c-5.6,0.1-11.1,0.3-16.7,0.4c-4.9-2.7-9.8-5.4-10.6-11.8c18.4-2.5,37.9,0.2,54.5-11.2
			c7.9-0.4,14,3.2,19,9c3.6,1.4,6.5,3.3,6,7.8C173.8,339.6,155.5,333.8,139,344z"/>
		<path class="st103" d="M448.2,413.2c-2.4-11.3-4.8-22.6-7.3-34c-1.8-3.9-3.8-7.7-4.4-12.1c-0.5-2.9-0.6-5.8-0.6-8.7
			c0.3-7.4,0.7-14.8,5.6-21c2.8-1.9,5.4-1.8,8,0.4c5.6,19,5,38.4,4,57.8C447.8,400.3,449.9,407.4,448.2,413.2z"/>
		<path class="st104" d="M185.2,330.5c-9.5,3.7-13.6-3.9-19-9c7.8-9.7,19.5-5.1,29.2-7.9c2-1.6,3.8-1.4,5.5,0.5
			c4.3,4.2,8.5,8.4,12.8,12.5C205.6,338.3,193.4,319.3,185.2,330.5z"/>
		<path class="st105" d="M472,447.5c2.3-20.8-7.3-42.1,17.6-60.4c14.6-10.8,3-39.7,5.1-60.4c1.6-1.9,3.4-2.3,5.4-0.8
			c5.9,0.4,11.9,0.7,17.8,1.1c9.2,20.7,17.2,42,27.9,62c-17.8,8.6-50.2-9.4-51.8,28.6C485.6,426.7,492.7,447.3,472,447.5z"/>
		<path class="st106" d="M545.8,388.9c-27.1-12.6-26.1-38-27.9-62c19-1.9,38-3.9,57-5.8c-1.8,1.9-3.6,3.7-5.4,5.6
			c-9,10.1-8.8,22.5-9.1,34.9c-0.3,10.1,2.9,21.5-9.4,27.6l-2.6,0.1L545.8,388.9z"/>
		<path class="st107" d="M551,389.3c4.7-13.4,7.2-27.1,6.8-41.5c-0.2-8.7-3.2-20.2,11.7-21c-2.1,10-4.8,20-6.2,30.2
			c-2.6,18.3,3.4,29.6,24.3,27.3c16.9,20.3,5.1,42.3,3.7,63.7c-17.2-4.3-10.1-22.9-19.3-32.4c-10.1,9.9-3.8,26.1-13.2,36.3
			C543.6,432.5,556.6,409.7,551,389.3z"/>
		<path class="st108" d="M558.7,451.7c-3.2-20.5,0.9-39,16.6-56.5c10.8,16.8,5.1,37.5,15.9,52.7c0,1.2-0.1,2.3-0.5,3.4
			C580.1,451.4,569.4,451.6,558.7,451.7z"/>
		<path class="st109" d="M472,447.5c9.7-5,11.6-13.7,11.3-23.5c-0.3-8.8,4.8-8.3,10.8-6.5c14.3,25.3,5.3,36-22.1,35.1
			C471.8,450.9,471.8,449.2,472,447.5z"/>
		<path class="st110" d="M460.1,320.8c-5.8,0-11.5,0-17.3-0.1c-9.3,7.6-17.8,1-26.6-1.5c-2.5-1.2-4.7-2.7-6.8-4.4
			c-18.5-19.1-49.8-19-64.9-43.3c-0.2-0.3,0.5-1.5,1-1.9c0.8-0.5,1.8-0.6,2.7-0.9c2.8-9.4-9.7-10.7-9.9-22.2
			c29.3,17.4,62.2,23.5,87.6,45.3C433.8,305.7,456.3,302.2,460.1,320.8z"/>
		<path class="st111" d="M460.1,320.8c-7.9-13.8-31.7-8.7-34.2-28.8c13.3-3.2,26.7,23.7,39.9-0.1c0.9,0,1.9-0.2,2.8,0
			c12.6,3.3,24.2-20.4,30.7-8.2c4.9,9.3,9,27.9,0.8,42.1c-1.8,0.3-3.6,0.5-5.4,0.8C483.2,324.2,470.1,331.8,460.1,320.8z"/>
		<path class="st112" d="M348.2,268.9c13.4,13.4,32,18.2,47.5,28.1c7.5,4.8,18.5,5.8,18.8,18.1c-8.2,6.5-15.9,1.7-23.7-0.8
			c-18.6-8.2-34.5-20.5-50.8-32.2c-35.5-8.7-59.5,11.6-83.2,32.7c-10.6-15,3-21.4,11.3-28.1c14.4-11.7,30.9-20.6,45-32.8
			c1.2-0.5,2.5-1,3.7-1.5C327.6,257.1,335.7,267.2,348.2,268.9z"/>
		<path class="st113" d="M292.6,217.5c-0.1-12.7,6.4-18.4,18.8-18.1c29.4,11.5,31.4,31,5.4,52.9c0,0,0.3-0.1,0.3-0.1
			c-4.2,2.3-7.3-0.1-10.4-2.6c-6-6.7-14.4-11.4-17-20.9C289.2,224.6,289.7,220.7,292.6,217.5z"/>
		<path class="st114" d="M437.1,182.9c-1.2,11-3.5,21.2-17,23.2c-5.3-13.1-20.8-12.8-28.9-22.2c6.3-1.5-0.1-14.5,10.7-11.9
			C412.4,179.6,425.1,180.3,437.1,182.9z"/>
		<path class="st115" d="M292.6,217.5c0.3,3.9,0.6,7.8,0.9,11.7c-24,35-35.8,38.4-65.9,18.7c-6.3-7.4-9.9-15.3-3.9-24.6
			c27.5,12.8,41.6-8.7,58.7-22.8C285.8,206.2,289.2,211.9,292.6,217.5z"/>
		<path class="st116" d="M223.7,223.3c-0.2,8.6,2.7,16.2,7.8,23c8.5,6.4,16.4,13.2,20,23.8c0.8,4.1,0.2,8-2,11.5
			c-11.3,6.3-23.1,11.8-33.4,19.8c-6,3.2-12.2,6-15.2,12.8c-1.9,0.1-3.7-0.1-5.5-0.5c-12.7-29-34.4-52.3-49.9-79.5
			c1.7-1.5,3.4-3,5-4.6c9.1-10.3,16.6-24,34.3-16.9c11.4,2.1,11.4,2.1,11.8-18.1C209.4,200.6,210.3,217.8,223.7,223.3z"/>
		<path class="st117" d="M202,166.1c16.5-3.5,33.1-6.9,49.6-10.4C239.5,185.4,224.5,188.6,202,166.1z"/>
		<path class="st118" d="M184.9,212.6c-14.1,0.2-22.1,12.9-34.3,16.9c1.8-23.4,20.1-24,36.7-25.1
			C190.4,204.2,187.7,210.2,184.9,212.6z"/>
		<path class="st119" d="M477.5,257.7c-17.7-3.8-28.7-15.6-42.8-36c22.4,9.8,40.9,10.7,48.5,30.3
			C481.3,253.9,479.4,255.8,477.5,257.7z"/>
		<path class="st120" d="M149.6,274.7c-15.2-5.4-24.5-11.5-24.9-25.4c-0.1-2.1,6.3-6.9,7.6-6.2C144,249,146.9,259.9,149.6,274.7z"/>
		<path class="st121" d="M339.9,282c20.4,2.4,33.8,19,52.2,25.5c2.3,16.9-10.9,20.4-22.1,23.2c-21.8,5.4-43.9,6.5-64.8-4.4
			c7.5-10.3,8.2-28.2,28.4-25.2C334.8,301.3,337.8,288.7,339.9,282z"/>
		<path class="st122" d="M246.9,281.1c0.3-3.9,0.6-7.9,1-11.8c22-4.7,36.6-29.4,62.7-23.1c2.1,2,4.3,4,6.4,5.9
			c-4.9,21.5-27,23.5-40.7,34.9c-9.5,7.9-19.8,13.6-19.6,27.7c-2.6,0.4-5.2,0.8-7.7,1.2c-4.2-4.4-8.3-8.9-12.5-13.3
			C235.1,293.1,242.6,287.9,246.9,281.1z"/>
		<path class="st123" d="M305.2,326.3c19.8-0.5,39.8,0.4,59.4-2c10.4-1.3,23.2-3.4,27.5-16.8c7.4,2.5,14.9,5,22.3,7.5c0,0,0,0,0,0
			c2.1,2.4,3,5.2,2.7,8.4c-1.6,6.5-5.6,10.9-11.3,14c-16.1,8-33.5,8.2-50.9,8.3c-11.5,0.4-23,0.4-32.4-7.9c-9.5,0.1-19,0.3-28.5,0.4
			C295.8,332.5,299.7,328.7,305.2,326.3z"/>
		<path class="st124" d="M322.6,337.9c11.5,0,23-0.1,34.5-0.1c16.6,9.5,36.1,12.1,52.7,21.8c1.9,2.4,3.2,5,3.9,7.9
			c1,17.5-2.1,33.5-16.2,45.6c1.8,3.5,3.5,7.1,5.3,10.6c-26.2,12.3-55-7.7-81.1,6.6c-1.6-0.3-3.2-0.6-4.8-0.9
			c-2-1.8-3.9-3.5-5.9-5.2c-1.9-1.7-3.8-3.4-5.7-5.1c-0.1-4.1-0.1-8.2-0.2-12.3C333.4,389.5,319.3,361.5,322.6,337.9z"/>
		<path class="st125" d="M246.9,281.1c6.3,11.9-5.2,15.1-10.4,21.5c-7.5,10.4-13.6-1.4-20.5-1.3
			C221.9,287.8,228.8,275.9,246.9,281.1z"/>
		<path class="st126" d="M414.9,319.9c0.5-1.7,0.4-3.3-0.4-4.9c10.6-3.9,18.9,3.7,28.3,5.7c4.5,4.8,14.5,7.5,6.8,17.1
			c-2.2,0.3-4.3,0.7-6.5,1C431.6,335.7,421.7,330.1,414.9,319.9z"/>
		<path class="st127" d="M397.6,413.2c6.7-15,9.7-31,11.4-47.2c10.1-14,21.5-15.4,34.3-3.5c-0.1,1-0.2,2.1-0.3,3.1
			c-8.8,8.6-21.1,14.6-22.7,28.9c-0.8,5.9-1.6,11.7-2.3,17.6C410.8,406.4,404.3,412.8,397.6,413.2z"/>
		<path class="st128" d="M420.2,394.6c-7.7-21.6,5.1-27.2,22.7-28.9c-0.6,4.5-1.3,9.1-1.9,13.6C428.8,377.3,427.2,389.6,420.2,394.6
			z"/>
		<path class="st129" d="M443.2,362.5c-11.9-3.1-23.5-4-34.3,3.5c-0.6-1.7-1.1-3.5-1.3-5.3c-5.8-9.5-0.6-19-0.2-28.6
			c2.5-4.1,5-8.1,7.4-12.2c12.3,2,21.4,8.9,28.3,19C443.2,346.8,443.2,354.6,443.2,362.5z"/>
		<path class="st130" d="M310.6,246.2c-22.8,2.7-35.9,31.3-62.7,23.1c-5.5-7.7-10.9-15.4-16.4-23c28.1,21.5,42.3-7.8,61.9-17.1
			C298.6,235.5,308.5,237,310.6,246.2z"/>
		<path class="st131" d="M407.4,332.2c13.6,9.4-0.2,19.1,0.2,28.6c-21.2,2-38-5.7-50.5-22.9C374.3,339.9,390.8,335,407.4,332.2z"/>
	</g>
</g>
</svg>
