<?xml version="1.0" encoding="utf-8"?>
<!-- Generator: Adobe Illustrator 23.0.6, SVG Export Plug-In . SVG Version: 6.00 Build 0)  -->
<svg version="1.1" id="Слой_1" xmlns="http://www.w3.org/2000/svg" xmlns:xlink="http://www.w3.org/1999/xlink" x="0px" y="0px"
	 viewBox="0 0 104.7 65.7" style="enable-background:new 0 0 104.7 65.7;" xml:space="preserve">
<style type="text/css">
	.st0{fill:#FEFEFE;}
	.st1{fill:#CDB593;}
	.st2{fill:#434343;}
	.st3{fill:#72412C;}
	.st4{fill:#8A4F35;}
	.st5{fill:#2D2D2D;}
	.st6{fill:#894E35;}
	.st7{fill:#894E34;}
	.st8{fill:#73412C;}
	.st9{fill:#894F35;}
	.st10{fill:#030202;}
	.st11{fill:#010100;}
	.st12{fill:#22130D;}
	.st13{fill:#6F412E;}
	.st14{fill:#040302;}
	.st15{fill:#070403;}
	.st16{fill:#885038;}
	.st17{fill:#030303;}
	.st18{fill:#0C0704;}
	.st19{fill:#050505;}
	.st20{fill:#BFA888;}
	.st21{fill:#9B573A;}
	.st22{fill:#AB6142;}
	.st23{fill:#AB6141;}
	.st24{fill:#9B583B;}
	.st25{fill:#0E0C09;}
	.st26{fill:#0F0A09;}
	.st27{fill:#E6E6E6;}
	.st28{fill:#AA6041;}
	.st29{fill:#060606;}
	.st30{fill:#E5E5E5;}
	.st31{fill:#010101;}
	.st32{fill:#020202;}
	.st33{fill:#AC6142;}
	.st34{fill:#C1AA8A;}
	.st35{fill:#683D2A;}
	.st36{fill:#070402;}
	.st37{fill:#060504;}
	.st38{fill:#734732;}
	.st39{fill:#090806;}
	.st40{fill:#0B0A08;}
	.st41{fill:#030302;}
	.st42{fill:#060302;}
	.st43{fill:#CCCCCC;}
	.st44{fill:#7D4730;}
	.st45{fill:#0A0604;}
	.st46{fill:#0C0705;}
	.st47{fill:#454545;}
	.st48{fill:#474747;}
	.st49{fill:#090807;}
	.st50{fill:#844B32;}
</style>
<g>
	<g>
		<path class="st0" d="M-0.3-3.3c34.2,0,68.3,0,102.5-0.1c3,0,3.6,0.6,3.6,3.6c-0.2,21.2-0.1,42.3,0,63.5c0,2.5-0.6,3.1-3.1,3.1
			c-33.3-0.1-66.7-0.1-100,0c-2.5,0-3.1-0.6-3.1-3.1C-0.2,41.3-0.3,19-0.3-3.3z"/>
		<path class="st1" d="M39.8,52.8c-0.9,3.8-3.4,4.7-6,2.2c-3-2.9-6.8-4.3-10.1-6.5c-0.8-0.9-1.2-1.9-1.2-3
			c-0.2-7.6-0.3-15.2,2.2-22.6c1.5-4.4,3.5-8.6,6.6-12.1c1.1-1.1,2.3-1.9,3.7-2.3C36.5,7.6,37.9,6.8,39,9c0.2,0.4,0.4,0.8,0.5,1.2
			c0.3,1.3,0.6,2.6,1,3.8c0.1,0.4,0.2,0.9,0.3,1.4c0.1,1.7,0.2,3.3-0.1,5c-0.2,1.2-0.7,2.3-1.3,3.4c-0.7,1-1.5,1.8-2.5,2.5
			c-3.9,3.5-4.1,4.7-1.4,8.6c0.3,0.3,0.6,0.6,0.9,1c0.3,0.3,0.5,0.7,0.8,1c0.2,0.1,0.3,0.3,0.5,0.4c1.1,1,2.8,1.3,3.6,2.8
			c0.5,1.4,0.1,2.8-0.2,4.1C41,45.8,41,47.4,40.9,49C40.9,50.4,40.3,51.6,39.8,52.8z"/>
		<path class="st2" d="M67.9,54.8c-0.5,2,2,4.1-0.3,6c-1.6,0.6-3.3,0.7-4.9,0c-1.6,0.3-2.4-0.8-2.8-2c-0.8-2.6-2.9-3.5-5.2-4.2
			c-1.8-0.7-3.9,0-5.5-1.3c-0.9-0.5-1.3-1.4-1.5-2.4c-0.2-1.6-0.1-3.3-0.7-4.9c-0.4-1.4-0.8-2.7-0.7-4.2c0.9-2.7,2.3-2.7,4.1-0.7
			c1.5,1.7,2.9,3.5,4.1,5.4c1.8,3.1,3,1.9,4.3-0.3c0.5-0.8,1-1.5,1.6-2.2c6.4-7.9,6.4-13.7-0.3-19.3c-1.5-1.1-3.8-0.5-4.7-2.5
			c-0.1-0.7-0.2-1.5,0.4-1.8c3.5-1.9,2.6-4.1,0.7-6.5C55.6,11,57.6,9.4,59,7.5c0.9-1.3,2.3-2.3,2.7-3.9c1.9-2,3-0.8,4.1,1
			c0.5,0.9,1.1,1.7,1.8,2.4c1.1,1.6,1.4,3.4,1.5,5.2c0.1,0.8,0.1,1.7,0.1,2.5c-0.1,6.8,0.1,13.7,0,20.5c0,1.5,0,2.9-0.3,4.4
			C67.3,44.6,68.7,49.7,67.9,54.8z"/>
		<path class="st1" d="M82.9,9.6c0.6-0.3,1.2-0.6,1.9-0.9c1.5-0.4,1.4,1,1.9,1.6c0.6,0.8,0.9,1.7,1.1,2.7c0.3,1.9,0.2,4,0.9,5.8
			c0.2,0.8,0.3,1.5,0.4,2.3c0.1,2.4-0.1,4.8,0.3,7.2c0.5,1.7,0.8,3.4,0.8,5.1c-0.6,6.1,1.4,12.4-1.4,18.3l0.1-0.1
			c-1.7,1.2-3.4-0.1-5,0c-1.8,0.1-3.4-0.4-4.6-1.9c-0.7-0.9-1.6-1.7-2.8-2c-1.8-0.5-3.2-1.6-3.7-3.5c-0.5-2.9-0.4-5.8-0.1-8.7
			c0.2-1,0.6-1.9,1.2-2.7c0.8-0.8,1.6-1.5,2.5-2.3c0.4-0.2,0.8-0.4,1.2-0.5c1.2-0.5,2.4-0.9,3.7-1.1c0.4-0.1,0.5-0.3,0.3-0.7
			C81.3,28.1,81.1,28,81,28c-0.5-0.4-0.7-0.9-0.7-1.5c0-3.8-2.5-1-3.8-1.4c-0.5-0.1-0.9-0.3-1.2-0.7c-0.9-4.9,2.1-8.3,4.3-12.1
			C80.4,11,81.3,9.9,82.9,9.6z"/>
		<path class="st3" d="M23.7,45.7c0,0.9,0,1.9,0,2.8C16.4,46.2,9.8,42.7,5.5,36c-0.7-1.1-0.6-2.1-0.8-3.2C4,31,4,29.2,4.7,27.5
			c-0.1-4.6,2.9-7.7,6.1-10.2c3.9-2.9,8.1-5.3,12.8-6.7c0.4-0.3,0.8-0.4,1.3-0.1c1.2,2.6-1.1,3.8-2.2,5.6c-0.7,0.9-1,2-1.6,3
			c-2.3,2.5-5.5,3.7-8,5.9c-3.8,3.4-3.8,6.1-0.1,9.7c2.3,2.2,5.4,3.3,7.9,5.3c1.6,1.2,1.8,3,2.1,4.7C23.2,45.1,23.4,45.4,23.7,45.7z
			"/>
		<path class="st4" d="M86.8,12.7c-0.3-0.7-0.6-1.4-0.9-2.1c0.8-0.9,2-0.2,2.9-0.7c2.6,3,7.3,3.5,9,7.5c1.5,7.4,1.7,14.8,0.8,22.2
			c0.4,5.2-1.2,9-6.8,10.1c-4.4,0.6-1.8-2.8-2.5-4.4c0.3-1.4,1.7-1.9,2.4-2.9c1.5-2.8,0.5-5.8,0.7-8.7c0-3.9-1.2-7.7-1-11.7
			c0.1-2-1.3-3.3-2.7-4.4C87.1,16.3,87.6,14.3,86.8,12.7z"/>
		<path class="st5" d="M61.7,3.6c1.4,2.3-0.9,3.1-1.8,4.5c-1.2,1.7-2.8,3.3-3.2,5.5c1.5,3.8-1.8,5.8-3.2,8.6c-1.1,1.5-2,3.2-3.7,4.2
			c-1.1,0.6-2.3,1.1-3.6,0.4c-1.1-0.9-1.5-2.1-1.7-3.5c-0.2-2.1-0.2-4.3-0.2-6.4c0.1-2.1,0-4.2,1.3-6.1c1.5-2,3.5-3.4,5.8-4.3
			c2.4,0.1,4.9,0.5,7.2-0.6C59.7,5.1,60.7,4.3,61.7,3.6z"/>
		<path class="st6" d="M82.9,9.6c-0.7,1-1.5,2-2.2,3.1c-1.3,0.8-2.4,2-4.2,1.7c-2.9-0.8-6.4,0.2-8.7-2.7c-0.3-1.6-0.7-3.3-1-4.9
			c1.3-1.1,2.6-0.7,4-0.2c0.7,0.1,1.4,0.1,2,0.2c1.6,0.9,3.4-0.2,5,0.8C79.1,9.3,81.6,7.9,82.9,9.6z"/>
		<path class="st7" d="M79.6,48.6c0.8,2,2.5,2.1,4.2,2.2c0.4,1-0.4,1.3-1,1.7c-0.4,0.1-0.7,0.1-1.1,0.2c-1.5,1-3.4-0.1-5,0.8
			c-0.7,0.1-1.4,0.1-2.1,0.2c-1.1,0.7-2.3,0.5-3.4,0.4c-1.6-0.1-3.9,0.9-4.1-2.2c-0.1-2.4,1.2-3.3,3.2-3.6c0.8-0.1,1.7-0.2,2.4-0.5
			c0.6-0.2,1.1-0.2,1.7-0.2C76.3,47.7,78.1,47.6,79.6,48.6z"/>
		<path class="st8" d="M51.7,6.8c-1.2,2-3.4,2.6-5,4c-1.2,0.7-2.5,1.3-3.8,1.6c-0.5,0.1-0.9,0.2-1.4,0.1c-2,0-1.9-1.8-2.7-2.9
			l0.1,0.1c-1.3-2.3,0.7-2.4,2-2.9c0.7-0.1,1.3-0.1,2-0.2C45.7,6,48.7,5.7,51.7,6.8z"/>
		<path class="st9" d="M101.5,28.5c-0.1,2.9,3.5,6.5-1.8,8.2c-3.2-4-1.2-8.5-1-12.8c0-0.8,1.3-0.7,2.1-0.3l-0.1-0.1
			C101.8,25.1,100.7,26.9,101.5,28.5z"/>
		<path class="st10" d="M73.5,48.8c-1.2,2.3-6.2-1.1-5.5,3c0.6,3.7,4.5,1,6.7,1.9c-2,2.1-4.6,0.3-6.8,1.1c-2.2-4.9-1.4-9.9-0.3-14.9
			c0.8,0.4,1.3,1.2,1.2,2C68.6,45.4,70.7,47.3,73.5,48.8z"/>
		<path class="st11" d="M100.8,23.6c-0.8,0.1-1.9,0.1-1.9,1.1c0.1,4-1.3,8.1,0.8,12c-0.4,1-0.8,1.9-1.2,2.9
			c-1.9-7.3-0.4-14.8-0.8-22.2C99.7,19.1,97.7,22.6,100.8,23.6z"/>
		<path class="st12" d="M24.8,10.7c-0.4,0-0.8-0.1-1.2-0.1c4-1,8.1-2,12.1-3c0.3,0.2,0.4,0.5,0.3,0.8c-0.1,0.3-0.2,0.4-0.3,0.4
			c-0.5,1.5-2.3,0.9-3,1.9C30.1,11.9,27.5,13.3,24.8,10.7z"/>
		<path class="st13" d="M39.8,52.8c-1.6-1.1,0.4-2.1,0-3.2c0.9-2,2.7-2.2,4.5-2.1c0.7,0,1.4,0.2,2.1,0.6c0.4,0.3,0.6,0.7,0.6,1.1
			c-0.6,1.5-2,2.3-2.9,3.4c-0.7,0.6-1.6,0.3-2.4,0.7C41.1,53.2,40.5,53,39.8,52.8z"/>
		<path class="st14" d="M89.9,44.6c0.3,1.8-1.6,4.5,1.9,5.1c-1,0.7-2,1.3-3.1,2c0.1-6.3,0.1-12.5,0.2-18.8
			C91.8,35.6,92.1,39.4,89.9,44.6z"/>
		<path class="st15" d="M51.7,6.8c-3-0.1-6-0.1-9-0.2c5.2-2,10.7-0.6,16-0.8C56.6,7.8,54.2,8.2,51.7,6.8z"/>
		<path class="st16" d="M43.8,52.5c0.1-1.9,1.2-2.7,3-2.9c1.2-0.6,1.5,0.5,2,1.2c0,0.7,0,1.4,0.8,1.8c0.7,0.5,0.8,1.1,0.1,1.7
			c-1-0.3-2-0.5-2.9-0.8C45.9,52.7,44.5,53.7,43.8,52.5z"/>
		<path d="M35.8,8.7c0-0.4,0-0.8,0-1.2c1.4-1.8,3.3-0.6,5-0.8c-0.7,1-2.3,1.3-2,2.9C37.6,9.7,37.5,6.8,35.8,8.7z"/>
		<path d="M82.8,52.5c0.3-0.6,0.7-1.1,1-1.7c1.8-0.4,3.2,1.5,5,0.8C87.1,53.8,84.8,52.3,82.8,52.5z"/>
		<path d="M88.8,9.9c-0.8,1-1.9,0.7-2.9,0.7c-0.3-0.7,0-1.8-1.1-2C87.2,5.7,86.8,11.6,88.8,9.9z"/>
		<path class="st17" d="M70.7,6.6c-1.3,0.1-2.6,0.1-4,0.2c-1-0.5-1-1.4-1-2.3C67,6.3,69.5,4.8,70.7,6.6z"/>
		<path class="st17" d="M49.7,54.4c0-0.6-0.1-1.2-0.1-1.7c1.7,0.6,3.4,1.2,5.1,1.9C53,54.5,51.3,54.4,49.7,54.4z"/>
		<path class="st18" d="M101.5,28.5c-1.4-1.5-0.7-3.3-0.8-4.9C102.7,25,101.5,26.8,101.5,28.5z"/>
		<path d="M4.7,27.5c0,1.8,0,3.5,0,5.3C3.1,31,3.2,29.2,4.7,27.5z"/>
		<path d="M43.8,52.5c1,0.4,2.3-0.3,3,1c-1.7-0.1-3.3-0.1-5-0.2C42.4,53.1,43.1,52.8,43.8,52.5z"/>
		<path d="M77.8,7.6c-1.7-0.2-3.5,0.8-5-0.8C74.5,7,76.3,5.8,77.8,7.6z"/>
		<path class="st17" d="M76.7,53.5c1.4-1.7,3.3-0.6,5-0.8C80.3,54.6,78.4,53.4,76.7,53.5z"/>
		<path class="st19" d="M62.7,60.7c1.6,0,3.3,0,4.9,0C65.9,62.3,64.3,62.3,62.7,60.7z"/>
		<path class="st20" d="M24.8,10.7c2.6,0.4,5.3-0.9,7.9-0.1c-8.3,10.3-9.6,22.4-9,35.1c0,0-0.4,0-0.4,0l-0.4,0
			c-1.1-1.7-0.2-3.9-1.3-5.6c-0.9-1.6-1.1-3.3-1.2-5.1c0.1-6.4-0.6-12.9,1.2-19.2C22.3,13.8,24.9,13.1,24.8,10.7z"/>
		<path class="st21" d="M45.5,23.6c0.4,1,0.9,2,1.3,3c1.6,1.8,1,4,1.1,6.1c0,1-0.1,2.1-0.4,3.1c-0.2,0.5-0.4,0.9-0.8,1.3
			c-1.2,1-2.5,1.5-4.1,1.4c-0.5-0.1-0.9-0.3-1.3-0.5c-0.7-0.7-1.2-1.5-1-2.5c2-4.2-0.6-6.7-3.4-9.2c-0.1-0.2-0.2-0.4-0.3-0.6
			c0.4-0.9,1-1.7,2.1-2c1.6-1.4,3.5-1.4,5.5-0.9C44.7,22.9,45.2,23.2,45.5,23.6z"/>
		<path class="st22" d="M46.8,48.7c-0.7,0-1.4,0-2.1,0c-3.2-0.1-5-1.7-4.8-5c0.4-1.2,1.1-2.4,0.8-3.8c0.2-0.4,0.6-0.6,1-0.7
			c1.3,0,2.6,0,3.9,0c1.3,0.4,1.9,1.2,1.2,2.6c0.3,1.4,0.7,2.7,1,4.1C48.1,46.9,49.1,48.4,46.8,48.7z"/>
		<path class="st23" d="M45.5,23.6c-0.3,0-0.6,0-0.8,0c-1.1-1.6-4.2-0.3-4.4-3.1c-0.2-1.9,0.4-3.9-0.4-5.8c0-0.4-0.1-0.8-0.1-1.2
			c-0.5-1.9,1.6-1,2-1.9c0.4-0.1,0.8-0.1,1.3-0.2c2-0.7,2.2,0.6,2.2,2c0.1,1.1-0.3,2.3,0.5,3.3C45.6,19.1,45.6,21.4,45.5,23.6z"/>
		<path class="st24" d="M35.7,35.8c-2.4-0.3-3.6-1.9-3.3-4c0.3-2.7,0.5-5.8,4.3-6.2c0,0,0.1,0.1,0.1,0.1c0.3,0.3,0.4,0.7,0.3,1.1
			c-0.2,0.6-0.5,1.1-0.8,1.7c-0.6,1.4-0.5,2.8-0.1,4.2c0.1,0.4,0.2,0.8,0.2,1.3C36.4,34.7,36.2,35.3,35.7,35.8z"/>
		<path class="st25" d="M40.4,20.6c0.7,2.1,4.7-0.5,4.3,3c-2,0-4,0-6,0c-0.2-1.3,0.9-2,1.3-3L40.4,20.6z"/>
		<path class="st4" d="M35.7,35.8c0-0.7,0-1.4,0-2.1c0.1-0.7,0.5-1.2,1.2-1.4c0.4,0,0.9,0,1.3,0.2c0.7,0.6,1.2,1.3,1.4,2.2
			c0.1,0.7,0,1.4-0.3,2c-0.6,0.8-1.3,1.3-2.3,0.9l-0.2,0c-0.2-0.4-0.5-0.7-0.7-1.1C35.8,36.4,35.7,36.1,35.7,35.8z"/>
		<path d="M39.9,43.6c1.3,3.4,1.3,3.4,4.8,5c-1.7-0.1-3.4,0-4.9,1C39.8,47.6,39.8,45.6,39.9,43.6z"/>
		<path class="st18" d="M36.8,37.7c0.6-0.4,1.2-0.8,1.9-1.1c1.1,0,2.1,0.3,2.9,1.1l0.3-0.1c0.5,0.7,0.5,1.4-0.3,1.9
			c-0.3,0.1-0.6,0.1-0.9,0.3C39.1,39.6,37.8,38.9,36.8,37.7z"/>
		<path d="M40.4,20.6l-0.4,0c-0.1-2-0.1-3.9-0.2-5.9C41.5,16.6,40.7,18.6,40.4,20.6z"/>
		<path class="st26" d="M41.7,11.7c-0.7,0.6-1.3,1.3-2,1.9c-1.9-0.9-0.5-2.7-1-3.9C39.7,10.3,40.1,11.9,41.7,11.7z"/>
		<path class="st24" d="M35.9,36.7c0.2,0.4,0.5,0.7,0.7,1.1C36.4,37.4,36.1,37,35.9,36.7z"/>
		<path class="st27" d="M60.7,23.5c7.5,6.1,7.5,14.9,0,21.3c-4.4,2.4-6-1.8-8.6-3.6c-2.8-4-2.5-12.6,0.4-16.2
			C54.8,22.1,57.8,23.2,60.7,23.5z"/>
		<path class="st23" d="M73.5,48.8c-8.3,1.1-5.1-5.3-5.9-9c0.1-1.4,0.2-2.8,0.2-4.2c1.2-1.6,2.6-3,4.8-3c0.9,0.7,0.6,1.7,0.6,2.7
			c0.2,3-0.4,6.1,0.3,9.1c0.8,2,2.4,2.3,4.3,2.4c0.1,2.4-2.4,0.7-3,1.9C74.4,48.7,73.9,48.8,73.5,48.8z"/>
		<path class="st28" d="M67.8,11.7c2.8,1.4,6.2,0.2,8.9,1.8c-0.1,1.4-1.3,2.2-2.1,3.2c-1.1,1.3-0.5,2.8-0.4,4.2
			c-0.3,2,0.1,4.1-0.1,6.1c-0.3,0.7-0.9,1.2-1.6,1.4c-2.9,1-4.3,0.1-4.4-3.1c-0.1-3.9,0.6-7.8-0.4-11.7C67.8,13,67.8,12.3,67.8,11.7
			z"/>
		<path class="st29" d="M60.7,23.5c-3.2,0.3-7.3-0.7-8.1,3.7c-0.8,4.3-3.7,8.9,0.2,13.3c0.2,0.2,0.3,0.4,0.3,0.7
			c0,0.3-0.1,0.4-0.1,0.4c-1.1,0.8-2.2-0.6-3.4,0c-0.9-1.3-1.9-1.2-2.8,0c0-1.4-0.7-2.1-2-2.1c-0.5-1.8,1.4-1.9,2-2.8l0,0
			c1.5-2.7,0.7-5.6,1.1-8.4c0.2-0.7,0.6-1.3,1.2-1.7c1.3-0.9,2.3-2.1,3.3-3.3c0.9-0.9,1.6-2.3,3.3-1.7
			C56.8,23.7,59.5,21.6,60.7,23.5z"/>
		<path d="M67.8,13.6c1.9,3,0.8,6.4,0.9,9.5c0.1,3-0.1,5.6,4.2,4.5c0.3,0.3,0.4,0.7,0.4,1.1c-0.3,1.2-1,2.1-1.4,3.3
			c0,0.2,0,0.4-0.1,0.6c-0.3,2.4-2.1,2.7-3.9,3.1C67.8,28.3,67.8,21,67.8,13.6z"/>
		<path class="st30" d="M49.6,41.6c1.2-4,2,0.9,3.1,0.2c2.5,1.5,4.4,3.8,7,4.9c-0.6,1-1.2,1.9-1.8,2.9c-1.4,2.4-2.1,2.2-3.3-0.4
			C53.4,46.5,51.3,44.1,49.6,41.6z"/>
		<path class="st30" d="M55.7,21.6c-1,0.7-2,1.5-3,2.2c-0.6-0.7-0.6-1.4-0.1-2.2c1.4-2.7,3.6-5,4-8.1c3,0.5,1.9,4,3.9,5.3
			c0.1,0.1-0.6,1.9-1.9,1.2C56.9,19.2,56.4,20.5,55.7,21.6z"/>
		<path class="st31" d="M59.7,46.7c-3.7,0.3-5-2.8-7-4.9c0-0.4,0.1-0.8,0.1-1.3c2.7,1.3,3.9,5.4,7.9,4.3
			C60.4,45.4,60,46.1,59.7,46.7z"/>
		<path class="st32" d="M46.8,48.7c1.4-0.6,0.8-2,1.1-3c1.8,1.4,0.8,3.4,0.9,5.1c-0.7-0.4-1.3-0.8-2-1.2
			C46.6,49.3,46.6,49,46.8,48.7z"/>
		<path class="st33" d="M89.9,44.6c-0.8-3.8,0.9-7.9-1-11.6c-0.4-1.4-0.7-2.8-1.1-4.2c0.7-2.7,0.7-5.3,0-8c-0.1-0.8-0.1-1.6-0.2-2.3
			c-0.5-1.1-0.5-1.8,1-1.8c3.2,0.7,4.4,2.5,4.2,6c-0.2,3.7,0.5,7.5,0.9,11.2c-1.3,3.2,0.3,6.6-0.9,9.7C92.2,44.8,91,44.7,89.9,44.6z
			"/>
		<path class="st34" d="M73.7,15.7c1-0.7,2-1.5,3.1-2.2c1.3-0.3,2.6-0.6,3.9-0.9c-2.4,3.6-4.6,7.4-5,11.9c0,1-0.2,1.8-1,2.4
			c-0.5,0.2-0.8,0-1-0.5c-1.6-1.9-0.9-3.9-0.3-5.8C73.2,18.9,72.9,17.3,73.7,15.7z"/>
		<path class="st35" d="M76.7,24.6c1.3-1.2,2.8-2.6,4.4-1.5c0.9,0.6,1.1,2.5-0.4,3.6c-0.3,0.3-0.6,0.5-1,0.4c-0.8-0.2-1.5-0.6-2.2-1
			c-0.3-0.3-0.6-0.6-0.8-0.9C76.8,25,76.8,24.8,76.7,24.6z"/>
		<path d="M79.9,26.7c0.3,0,0.6,0,0.9,0c0.3,0.4,0.6,0.8,0.9,1.1c0.6,0.6,0.6,1.3,0,1.9c-1,1.7-2.7,0.2-3.9,0.8
			c-1-0.7-0.6-1.5-0.1-2.3C78.3,27.6,79,27,79.9,26.7z"/>
		<path class="st36" d="M73.6,44.4c-1.7-3.1-0.6-6.5-0.6-9.7c0.2,0,0.4,0,0.6,0C73.5,37.9,73.5,41.2,73.6,44.4z"/>
		<path class="st11" d="M87.8,20.8c1.4,2.7,1.4,5.3,0,8C87.8,26.1,87.8,23.4,87.8,20.8z"/>
		<path class="st11" d="M74.6,26.6c0.2-0.8,0-1.8,1.1-2.1c0.3,0,0.7,0.1,1,0.1c0,0-0.1,0.1-0.1,0.1c0.9,1.2,1.3,2.5,0.4,3.9
			c-0.7,0.7-1.5,0.7-2.3,0.3C74,28.2,74.2,27.4,74.6,26.6z"/>
		<path class="st37" d="M75,28.7c0.5,0,1,0,1.5,0c1,0.5,0.8,1.3,0.4,2.1c0.1,1.5-0.6,2.1-2.1,1.9c-0.2-0.2-0.3-0.4-0.5-0.6
			C73.7,30.8,73.6,29.5,75,28.7z"/>
		<path class="st38" d="M76.8,30.8c-0.1-0.7-0.3-1.4-0.4-2.1c0.1-1.3,0.1-2.6,0.2-3.9c0.4,0.4,0.8,0.8,1.2,1.2
			c0.7,0.7,1.3,1.5,1,2.6c-1,0.4-0.7,1.3-0.9,2.1C77.5,30.6,77.2,30.7,76.8,30.8z"/>
		<path class="st39" d="M88.6,16.6c-0.8,0.3-1,1-1,1.8c-1.8-1.7-0.7-3.8-0.8-5.7C88.3,13.6,87.7,15.5,88.6,16.6z"/>
		<path d="M74.8,48.6c0.3-1.7,2.6-0.3,3-1.9c1,0.2,1.6,0.8,1.8,1.8C78,48.6,76.4,48.6,74.8,48.6z"/>
		<path class="st40" d="M73.5,34.7l-0.3,0c0,0-0.3,0-0.3,0c-0.4-0.7-0.8-1.4-1.2-2.1c0,0,0,0.1,0,0.1c-0.5-1.5,0.5-1.5,1.6-1.5
			c0.8,0.2,1,1,1.5,1.5c0,0-0.1-0.1-0.1-0.1C74.3,33.3,73.9,34,73.5,34.7z"/>
		<path d="M81.8,29.8c0-0.6,0-1.3,0-1.9c0.6,0.2,1.3-1.5,1.8-0.1C84.1,29.3,83.1,29.8,81.8,29.8z"/>
		<path class="st33" d="M21.7,35.7c0.3,1.4,0.6,2.7,0.9,4.1c-0.3,0.7-0.8,1.2-1.7,1c-3.2-1.3-6.2-2.8-8.8-5.2c-4.7-4.5-4.5-8,1-12
			c2.4-1.7,5-3.2,7.5-4.8c1.1,3.2,1,6.4,0.1,9.6c-0.6,1.2-0.7,2.5-0.1,3.8C21,33.3,21,34.6,21.7,35.7z"/>
		<path d="M18.8,28.6c3.5-2.8,1.6-6.5,1.8-9.9c0.3-1-0.2-2.3,1.1-3c0,6.6,0,13.3,0.1,19.9c-0.6-1-1.2-2-1.9-3
			C19.6,31.3,20,29.7,18.8,28.6z"/>
		<path class="st41" d="M20.9,40.8c0.6-0.3,1.1-0.7,1.7-1c0.1,2,0.2,4,0.3,5.9C20.9,44.5,22.1,42.1,20.9,40.8z"/>
		<path d="M92.8,43.5c0.4-3.2-1.1-6.6,0.9-9.7C93.3,37,94.7,40.4,92.8,43.5z"/>
		<path d="M49.8,26.6c-0.4,0.4-0.8,0.7-1.1,1.1c-1.4,1.7,1.3,4.7-1.9,5.9c0-2.3,0.1-4.6,0.1-6.9c0.9-0.3,1.8-0.6,2.7-1
			c0.4,0.1,0.5,0.3,0.4,0.6C50,26.5,49.9,26.6,49.8,26.6z"/>
		<path class="st42" d="M45.7,16.8c-2.3-1.1,0.7-4.8-2.7-5.3c1-1.3,2.4-0.7,3.7-0.8C45.5,12.7,45.8,14.8,45.7,16.8z"/>
		<path class="st43" d="M49.8,26.6c0-0.3,0-0.6-0.1-0.9c1-1.4,2.1-2.7,3.1-4.1c0,0.7,0,1.5,0.1,2.2C52,25,51.2,26.1,49.8,26.6z"/>
		<path class="st33" d="M38.8,34.9c-0.4-0.8-0.8-1.7-1.2-2.5c-1.1-1.3-1-2.9-1.2-4.5c-0.1-0.5,0.1-0.9,0.4-1.2c0-0.3,0-0.7,0-1
			c5.8,2.6,7,5.6,3.9,10C39.7,36.2,39.3,35.4,38.8,34.9z"/>
		<path class="st44" d="M46.8,36.7c0.3,1.6-1.5,1.8-2,2.8c-1.1,1.7-2.1,0.3-3.2,0c0.1-0.6,0.2-1.3,0.3-1.9
			C43.5,37.3,45.2,37,46.8,36.7z"/>
		<path class="st4" d="M46.8,33.6c2.3-1.4-0.3-4.4,1.9-5.9c0,3.1,0.8,6.4-1.9,9C46.8,35.7,46.8,34.6,46.8,33.6z"/>
		<path class="st45" d="M38.8,34.9c0.6,0.3,1.2,0.5,1.8,0.8c0.3,0.7,0.6,1.3,0.9,2c-1.1-0.1-2.2,0.1-2.9-1.1
			C38.7,36,38.8,35.5,38.8,34.9z"/>
		<path class="st4" d="M36.7,26.7c0,0.3,0,0.7,0,1c0.8,1.5,0.6,3.1,0.1,4.6c-0.4,0.5-0.8,0.9-1.1,1.4c0,0,0-0.1,0-0.1
			c-0.7-1.9-0.7-3.9,0-5.8C36,27.4,36.4,27,36.7,26.7z"/>
		<path d="M35.7,27.8c0,1.9,0,3.9,0,5.8C34.2,31.6,34.2,29.7,35.7,27.8z"/>
		<path class="st46" d="M36.9,32.4c0-1.5-0.1-3.1-0.1-4.6c1.9,1.3,0.7,3.1,0.8,4.7c0,0-0.3,0-0.3,0L36.9,32.4z"/>
		<path class="st47" d="M61,38.4c-1.4,1.6-1.3,4.6-3.4,4.1c-2.2-0.5-2.3-3.3-2.8-5.3c-0.3-1.2,0.6-2.6,1.9-2.3
			C58.5,35.4,60.2,36.5,61,38.4z"/>
		<path class="st48" d="M55.7,26.8c1.9-1.7,3.1,0,3.8,1.2c0.9,1.7,0.4,3.8-0.9,5c-1.4,1.4-2.1-0.3-2.8-1.4
			C55,30.1,55.1,28.5,55.7,26.8z"/>
		<path d="M55.7,26.8c0,1.6,0,3.3,0.1,4.9C54.2,30.1,54.1,28.5,55.7,26.8z"/>
		<path class="st7" d="M74.8,32.7c-0.4-0.3-0.7-0.6-1.1-0.9c-0.9-0.8-1-2-1-3.1c0-0.3,0.1-0.7,0.1-1c0.3-0.4,0.6-0.8,1-1.2
			c0.2,0.1,0.5,0.2,0.8,0.2c0.1,0.7,0.3,1.4,0.4,2.1C74.9,30,74.8,31.3,74.8,32.7z"/>
		<path class="st49" d="M73.7,15.7c-0.1,1.6-0.1,3.2-0.2,4.9C72.5,18.9,72,17.3,73.7,15.7z"/>
		<path class="st50" d="M72.7,28.6c1.2,0.7,1,2,1,3.1c-0.8-0.1-1.7-0.1-2,1C68.9,30.6,72.6,30.1,72.7,28.6z"/>
		<path class="st1" d="M78.8,28.5c-0.4-0.8-1.3-1.5-1-2.6c0.9-0.4,1.7-0.3,2,0.8C79.6,27.4,80,28.5,78.8,28.5z"/>
		<path class="st4" d="M18.8,28.6c3.2,0.6,2.2,2.3,1.1,4.1C18.2,31.7,18.9,30,18.8,28.6z"/>
	</g>
</g>
</svg>
